<!DOCTYPE svg PUBLIC "-//W3C//DTD SVG 20010904//EN" "http://www.w3.org/TR/2001/REC-SVG-20010904/DTD/svg10.dtd">
<svg version="1.0" xmlns="http://www.w3.org/2000/svg" width="237px" height="280px" viewBox="0 0 2370 2800" preserveAspectRatio="xMidYMid meet">
<g id="layer101" fill="#333" stroke="none">
 <path d="M1750 2369 c-58 -39 -111 -73 -118 -76 -7 -3 -49 -29 -92 -57 -43 -28 -113 -73 -157 -100 -84 -52 -124 -77 -190 -119 -24 -15 -62 -39 -85 -54 -24 -14 -61 -38 -83 -53 -22 -15 -44 -29 -50 -31 -5 -2 -41 -25 -80 -50 -98 -65 -564 -357 -578 -362 -35 -13 11 -19 483 -63 253 -24 379 2 540 109 120 80 195 176 267 342 19 44 46 107 60 140 14 33 36 83 49 110 12 28 39 90 59 139 20 49 41 96 46 105 9 18 39 91 36 90 -1 0 -49 -32 -107 -70z"/>
 <path d="M1991 2368 c-7 -35 -26 -135 -42 -223 -33 -176 -67 -353 -105 -545 -101 -520 -101 -530 -42 -740 14 -50 190 -441 196 -436 3 4 10 2006 6 2006 0 0 -6 -28 -13 -62z"/>
 <path d="M265 1329 c3 -5 36 -27 73 -49 37 -23 105 -66 152 -96 47 -30 126 -79 175 -110 50 -30 160 -100 245 -154 85 -55 175 -111 200 -126 25 -15 85 -54 133 -86 49 -32 91 -58 94 -58 2 0 23 -13 46 -29 23 -16 139 -88 257 -162 118 -73 226 -141 239 -151 13 -10 26 -16 29 -13 14 14 -152 355 -210 433 -108 144 -275 259 -443 306 -33 9 -69 21 -80 26 -11 5 -51 18 -90 29 -38 11 -108 31 -155 46 -47 14 -116 35 -155 45 -38 11 -77 24 -85 29 -9 5 -31 12 -50 15 -34 7 -135 38 -250 76 -86 29 -131 39 -125 29z"/>
 </g>

</svg>