<svg id="Capa_1" enable-background="new 0 0 497.099 497.099" height="512" viewBox="0 0 497.099 497.099" width="512" xmlns="http://www.w3.org/2000/svg"><g><ellipse cx="248.55" cy="383" fill="#e1dfe3" rx="115" ry="114.099"/><ellipse cx="248.55" cy="114.099" fill="#e1dfe3" rx="115" ry="114.099"/><path d="m337.37 455.479c-21.09 25.41-53.05 41.62-88.82 41.62-63.51 0-115-51.09-115-114.1 0-35.14 16.01-66.56 41.18-87.48-16.36 19.7-26.18 44.95-26.18 72.48 0 63.01 51.49 114.1 115 114.1 28.1 0 53.84-10 73.82-26.62z" fill="#d1ced4"/><path d="m337.37 186.578c-21.09 25.41-53.05 41.62-88.82 41.62-63.51 0-115-51.09-115-114.1 0-35.14 16.01-66.56 41.18-87.48-16.36 19.7-26.18 44.95-26.18 72.48 0 63.01 51.49 114.1 115 114.1 28.1 0 53.84-10 73.82-26.62z" fill="#d1ced4"/><ellipse cx="248.55" cy="114.099" fill="#5f6c75" rx="73.182" ry="72.609"/><path d="m309.49 154.29c-13.1 19.54-35.5 32.42-60.94 32.42-40.42 0-73.18-32.51-73.18-72.61 0-25.05 12.79-47.14 32.24-60.19-7.74 11.51-12.24 25.33-12.24 40.19 0 40.1 32.76 72.61 73.18 72.61 15.17 0 29.25-4.58 40.94-12.42z" fill="#4e5a61"/></g></svg>