<?xml version="1.0" encoding="UTF-8" standalone="no"?><!-- Generator: Gravit.io --><svg xmlns="http://www.w3.org/2000/svg" xmlns:xlink="http://www.w3.org/1999/xlink" style="isolation:isolate" viewBox="1455.415 215 592.831 287.825" width="592.831pt" height="287.825pt"><g><path d=" M 1456.649 425.199 L 1456.032 360.114 L 1455.416 295.028 C 1455.374 290.586 1458.447 285.148 1462.274 282.892 L 1518.392 249.812 L 1574.511 216.731 C 1578.338 214.475 1584.586 214.416 1588.455 216.599 L 1645.191 248.611 L 1701.926 280.622 C 1705.795 282.805 1708.971 288.184 1709.013 292.626 L 1709.629 357.712 L 1710.246 422.797 C 1710.288 427.239 1707.215 432.677 1703.388 434.933 L 1647.269 468.013 L 1591.15 501.094 C 1587.323 503.35 1581.075 503.409 1577.206 501.226 L 1520.471 469.214 L 1463.735 437.203 C 1459.866 435.02 1456.691 429.641 1456.649 425.199 Z  M 1652.387 352.269 C 1650.029 353.638 1647.29 354.422 1644.37 354.422 C 1641.404 354.422 1638.626 353.614 1636.244 352.205 L 1616.96 371.489 C 1618.487 373.94 1619.37 376.834 1619.37 379.932 C 1619.37 388.763 1612.2 395.932 1603.37 395.932 C 1594.539 395.932 1587.37 388.763 1587.37 379.932 L 1587.37 379.932 L 1587.37 379.932 L 1587.37 379.932 L 1587.37 379.932 L 1587.37 379.932 L 1587.37 379.932 L 1587.37 379.932 L 1587.37 379.932 L 1587.37 379.932 L 1587.37 379.932 L 1587.37 379.932 C 1587.37 371.102 1594.539 363.932 1603.37 363.932 C 1606.202 363.932 1608.863 364.67 1611.172 365.963 L 1611.172 365.963 L 1611.172 365.963 L 1611.172 365.963 L 1611.172 365.963 L 1630.587 346.549 C 1629.178 344.166 1628.37 341.388 1628.37 338.422 L 1628.37 338.422 L 1628.37 338.422 L 1628.37 338.422 L 1628.37 338.422 C 1628.37 335.502 1629.154 332.763 1630.523 330.405 L 1611.061 310.943 C 1608.778 312.198 1606.157 312.913 1603.37 312.913 C 1594.539 312.913 1587.37 305.743 1587.37 296.913 L 1587.37 296.913 L 1587.37 296.913 L 1587.37 296.913 L 1587.37 296.913 L 1587.37 296.913 L 1587.37 296.913 L 1587.37 296.913 L 1587.37 296.913 L 1587.37 296.913 L 1587.37 296.913 L 1587.37 296.913 L 1587.37 296.913 L 1587.37 296.913 L 1587.37 296.913 L 1587.37 296.913 L 1587.37 296.913 L 1587.37 296.913 L 1587.37 296.913 C 1587.37 288.082 1594.539 280.913 1603.37 280.913 C 1612.2 280.913 1619.37 288.082 1619.37 296.913 C 1619.37 300.055 1618.462 302.988 1616.894 305.462 L 1636.136 324.704 C 1638.542 323.256 1641.359 322.422 1644.37 322.422 C 1647.335 322.422 1650.114 323.231 1652.496 324.64 L 1652.826 324.31 L 1654.867 326.351 C 1655.427 326.839 1655.953 327.365 1656.441 327.925 L 1658.482 329.967 L 1658.153 330.296 C 1659.561 332.679 1660.37 335.457 1660.37 338.422 C 1660.37 341.433 1659.537 344.25 1658.088 346.656 L 1658.31 346.878 L 1657.17 348.018 C 1656.259 349.232 1655.179 350.312 1653.965 351.223 L 1652.653 352.535 L 1652.387 352.269 Z  M 1569.545 311.215 C 1567.386 312.301 1564.949 312.913 1562.37 312.913 C 1559.517 312.913 1556.838 312.164 1554.517 310.854 L 1554.517 310.854 L 1554.517 310.854 L 1554.517 310.854 L 1554.517 310.854 L 1554.517 310.854 L 1554.517 310.854 L 1535.074 330.296 C 1536.483 332.679 1537.292 335.457 1537.292 338.422 C 1537.292 347.253 1530.122 354.422 1521.292 354.422 C 1518.326 354.422 1515.548 353.614 1513.166 352.205 L 1512.836 352.535 L 1510.795 350.494 C 1510.234 350.006 1509.708 349.48 1509.22 348.92 L 1507.179 346.878 L 1507.509 346.549 C 1506.1 344.166 1505.292 341.388 1505.292 338.422 L 1505.292 338.422 L 1505.292 338.422 L 1505.292 338.422 C 1505.292 329.592 1512.461 322.422 1521.292 322.422 C 1524.257 322.422 1527.035 323.231 1529.418 324.64 L 1548.75 305.308 C 1547.241 302.867 1546.37 299.99 1546.37 296.913 L 1546.37 296.913 L 1546.37 296.913 L 1546.37 296.913 L 1546.37 296.913 L 1546.37 296.913 L 1546.37 296.913 L 1546.37 296.913 L 1546.37 296.913 L 1546.37 296.913 L 1546.37 296.913 L 1546.37 296.913 C 1546.37 288.082 1553.539 280.913 1562.37 280.913 C 1571.2 280.913 1578.37 288.082 1578.37 296.913 C 1578.37 300.259 1577.34 303.367 1575.58 305.937 L 1594.651 325.008 C 1597.16 323.373 1600.155 322.422 1603.37 322.422 C 1612.2 322.422 1619.37 329.592 1619.37 338.422 C 1619.37 347.253 1612.2 354.422 1603.37 354.422 C 1594.539 354.422 1587.37 347.253 1587.37 338.422 L 1587.37 338.422 L 1587.37 338.422 L 1587.37 338.422 L 1587.37 338.422 L 1587.37 338.422 L 1587.37 338.422 L 1587.37 338.422 L 1587.37 338.422 L 1587.37 338.422 L 1587.37 338.422 L 1587.37 338.422 L 1587.37 338.422 C 1587.37 335.709 1588.047 333.152 1589.241 330.911 L 1569.545 311.215 L 1569.545 311.215 Z  M 1595.244 407.13 C 1597.626 405.721 1600.404 404.913 1603.37 404.913 C 1606.335 404.913 1609.114 405.721 1611.496 407.13 L 1611.496 407.13 L 1611.496 407.13 L 1611.496 407.13 L 1630.579 388.046 C 1629.175 385.667 1628.37 382.893 1628.37 379.932 L 1628.37 379.932 L 1628.37 379.932 L 1628.37 379.932 L 1628.37 379.932 C 1628.37 371.102 1635.539 363.932 1644.37 363.932 C 1653.2 363.932 1660.37 371.102 1660.37 379.932 C 1660.37 388.763 1653.2 395.932 1644.37 395.932 C 1641.399 395.932 1638.616 395.121 1636.231 393.708 L 1617.153 412.786 C 1618.561 415.169 1619.37 417.947 1619.37 420.913 C 1619.37 423.878 1618.561 426.656 1617.153 429.039 L 1617.37 429.256 L 1616.321 430.304 C 1615.329 431.669 1614.127 432.872 1612.761 433.864 L 1611.713 434.913 L 1611.496 434.695 C 1609.114 436.104 1606.335 436.913 1603.37 436.913 C 1600.404 436.913 1597.626 436.104 1595.244 434.695 L 1594.914 435.025 L 1592.873 432.984 C 1592.312 432.496 1591.786 431.97 1591.298 431.41 L 1589.257 429.368 L 1589.587 429.039 C 1588.178 426.656 1587.37 423.878 1587.37 420.913 L 1587.37 420.913 L 1587.37 420.913 L 1587.37 420.913 L 1587.37 420.913 L 1587.37 420.913 L 1587.37 420.913 L 1587.37 420.913 L 1587.37 420.913 L 1587.37 420.913 L 1587.37 420.913 L 1587.37 420.913 L 1587.37 420.913 C 1587.37 417.947 1588.178 415.169 1589.587 412.786 L 1570.508 393.708 C 1568.123 395.121 1565.34 395.932 1562.37 395.932 C 1553.539 395.932 1546.37 388.763 1546.37 379.932 L 1546.37 379.932 L 1546.37 379.932 L 1546.37 379.932 L 1546.37 379.932 L 1546.37 379.932 L 1546.37 379.932 L 1546.37 379.932 L 1546.37 379.932 L 1546.37 379.932 L 1546.37 379.932 L 1546.37 379.932 L 1546.37 379.932 C 1546.37 371.102 1553.539 363.932 1562.37 363.932 C 1571.2 363.932 1578.37 371.102 1578.37 379.932 C 1578.37 382.893 1577.564 385.667 1576.16 388.046 L 1595.244 407.13 L 1595.244 407.13 L 1595.244 407.13 Z  M 1529.611 393.599 C 1527.186 395.079 1524.338 395.932 1521.292 395.932 C 1512.461 395.932 1505.292 388.763 1505.292 379.932 L 1505.292 379.932 L 1505.292 379.932 L 1505.292 379.932 L 1505.292 379.932 L 1505.292 379.932 C 1505.292 371.102 1512.461 363.932 1521.292 363.932 C 1524.338 363.932 1527.186 364.786 1529.611 366.266 L 1548.869 347.008 C 1547.287 344.527 1546.37 341.581 1546.37 338.422 L 1546.37 338.422 L 1546.37 338.422 L 1546.37 338.422 L 1546.37 338.422 L 1546.37 338.422 L 1546.37 338.422 C 1546.37 329.592 1553.539 322.422 1562.37 322.422 C 1571.2 322.422 1578.37 329.592 1578.37 338.422 C 1578.37 347.253 1571.2 354.422 1562.37 354.422 C 1559.598 354.422 1556.99 353.716 1554.716 352.474 L 1554.716 352.474 L 1554.716 352.474 L 1554.716 352.474 L 1535.188 372.002 C 1536.527 374.34 1537.292 377.048 1537.292 379.932 C 1537.292 382.817 1536.527 385.525 1535.188 387.863 L 1554.377 407.052 C 1556.729 405.691 1559.459 404.913 1562.37 404.913 C 1571.2 404.913 1578.37 412.082 1578.37 420.913 C 1578.37 429.743 1571.2 436.913 1562.37 436.913 C 1553.539 436.913 1546.37 429.743 1546.37 420.913 L 1546.37 420.913 L 1546.37 420.913 L 1546.37 420.913 L 1546.37 420.913 L 1546.37 420.913 L 1546.37 420.913 L 1546.37 420.913 L 1546.37 420.913 L 1546.37 420.913 L 1546.37 420.913 L 1546.37 420.913 L 1546.37 420.913 L 1546.37 420.913 C 1546.37 417.892 1547.209 415.065 1548.666 412.654 L 1529.611 393.599 L 1529.611 393.599 L 1529.611 393.599 L 1529.611 393.599 Z " fill-rule="evenodd" fill="rgb(255,255,255)"/><path d=" M 1767.404 329.316 L 1749.422 329.316 L 1749.422 329.316 Q 1747.101 329.316 1747.101 327.154 L 1747.101 327.154 L 1747.101 327.154 Q 1747.101 325.994 1748.736 324.992 L 1748.736 324.992 L 1748.736 324.992 Q 1749.474 324.465 1750.45 323.858 L 1750.45 323.858 L 1750.45 323.858 Q 1751.426 323.252 1751.953 322.355 L 1751.953 322.355 L 1751.953 322.355 Q 1752.375 321.512 1752.375 320.563 L 1752.375 320.563 L 1752.375 261.975 L 1752.375 261.975 Q 1752.375 259.232 1749.738 258.31 L 1749.738 258.31 L 1749.738 258.31 Q 1747.101 257.387 1747.101 255.33 L 1747.101 255.33 L 1747.101 255.33 Q 1747.101 253.168 1749.527 253.168 L 1749.527 253.168 L 1799.783 253.168 L 1799.783 267.775 L 1799.783 267.775 Q 1799.783 269.938 1797.357 269.938 L 1797.357 269.938 L 1797.357 269.938 Q 1796.039 269.938 1794.246 267.301 L 1794.246 267.301 L 1794.246 267.301 Q 1791.662 263.715 1789.974 261.948 L 1789.974 261.948 L 1789.974 261.948 Q 1788.287 260.182 1785.756 260.182 L 1785.756 260.182 L 1764.557 260.182 L 1764.557 286.707 L 1775.314 286.707 L 1775.314 286.707 Q 1776.844 286.707 1778.109 285.23 L 1778.109 285.23 L 1778.109 285.23 Q 1779.006 284.176 1779.718 282.726 L 1779.718 282.726 L 1779.718 282.726 Q 1780.43 281.275 1782.17 281.275 L 1782.17 281.275 L 1782.17 281.275 Q 1784.543 281.275 1784.543 283.438 L 1784.543 283.438 L 1784.543 296.832 L 1784.543 296.832 Q 1784.543 298.994 1782.17 298.994 L 1782.17 298.994 L 1782.17 298.994 Q 1780.324 298.994 1779.533 297.359 L 1779.533 297.359 L 1779.533 297.359 Q 1778.742 295.725 1777.74 294.617 L 1777.74 294.617 L 1777.74 294.617 Q 1776.685 293.563 1775.314 293.563 L 1775.314 293.563 L 1764.557 293.563 L 1764.557 320.563 L 1764.557 320.563 Q 1764.557 321.828 1765.084 322.672 L 1765.084 322.672 L 1765.084 322.672 Q 1765.611 323.41 1766.429 323.938 L 1766.429 323.938 L 1766.429 323.938 Q 1767.246 324.465 1768.037 324.939 L 1768.037 324.939 L 1768.037 324.939 Q 1769.777 325.994 1769.777 327.154 L 1769.777 327.154 L 1769.777 327.154 Q 1769.777 327.576 1769.672 327.998 L 1769.672 327.998 L 1769.672 327.998 Q 1768.881 329.316 1767.404 329.316 L 1767.404 329.316 L 1767.404 329.316 Z  M 1824.568 261.975 L 1824.568 261.975 L 1824.568 320.51 L 1824.568 320.51 Q 1824.568 323.305 1827.205 324.228 L 1827.205 324.228 L 1827.205 324.228 Q 1829.842 325.15 1829.842 327.154 L 1829.842 327.154 L 1829.842 327.154 Q 1829.842 329.316 1827.416 329.316 L 1827.416 329.316 L 1809.539 329.316 L 1809.539 329.316 Q 1807.166 329.316 1807.166 327.154 L 1807.166 327.154 L 1807.166 327.154 Q 1807.166 325.15 1809.803 324.228 L 1809.803 324.228 L 1809.803 324.228 Q 1812.439 323.305 1812.439 320.563 L 1812.439 320.563 L 1812.439 261.975 L 1812.439 261.975 Q 1812.439 259.232 1809.803 258.31 L 1809.803 258.31 L 1809.803 258.31 Q 1807.166 257.387 1807.166 255.33 L 1807.166 255.33 L 1807.166 255.33 Q 1807.166 253.168 1809.592 253.168 L 1809.592 253.168 L 1827.416 253.168 L 1827.416 253.168 Q 1829.842 253.168 1829.842 255.33 L 1829.842 255.33 L 1829.842 255.33 Q 1829.842 257.387 1827.205 258.31 L 1827.205 258.31 L 1827.205 258.31 Q 1824.568 259.232 1824.568 261.975 Z  M 1881.521 293.932 L 1904.355 323.832 L 1904.355 323.832 Q 1905.357 324.676 1907.308 324.834 L 1907.308 324.834 L 1907.308 324.834 Q 1909.945 325.15 1909.945 326.996 L 1909.945 326.996 L 1909.945 327.207 L 1909.945 327.207 Q 1909.629 329.316 1907.519 329.316 L 1907.519 329.316 L 1893.439 329.316 L 1893.439 329.316 Q 1892.226 329.316 1888.904 324.939 L 1888.904 324.939 L 1888.904 324.939 Q 1885.582 320.563 1881.469 314.867 L 1881.469 314.867 L 1881.469 314.867 Q 1877.355 309.172 1873.057 303.213 L 1873.057 303.213 L 1873.057 303.213 Q 1868.76 297.254 1866.228 294.143 L 1866.228 294.143 L 1859.848 294.143 L 1859.848 320.563 L 1859.848 320.563 Q 1859.848 323.305 1862.484 324.228 L 1862.484 324.228 L 1862.484 324.228 Q 1865.121 325.15 1865.121 327.154 L 1865.121 327.154 L 1865.121 327.154 Q 1865.121 329.316 1862.748 329.316 L 1862.748 329.316 L 1844.871 329.316 L 1844.871 329.316 Q 1842.445 329.316 1842.445 327.154 L 1842.445 327.154 L 1842.445 327.154 Q 1842.445 325.15 1845.082 324.228 L 1845.082 324.228 L 1845.082 324.228 Q 1847.719 323.305 1847.719 320.563 L 1847.719 320.563 L 1847.719 261.975 L 1847.719 261.975 Q 1847.719 259.285 1845.082 258.336 L 1845.082 258.336 L 1845.082 258.336 Q 1842.445 257.387 1842.445 255.33 L 1842.445 255.33 L 1842.445 255.33 Q 1842.445 253.168 1844.871 253.168 L 1844.871 253.168 L 1875.984 253.168 L 1875.984 253.168 Q 1881.68 253.168 1887.929 255.198 L 1887.929 255.198 L 1887.929 255.198 Q 1894.178 257.229 1897.658 263.188 L 1897.658 263.188 L 1897.658 263.188 Q 1900.295 267.881 1900.295 274.367 L 1900.295 274.367 L 1900.295 274.367 Q 1900.189 280.59 1896.709 285.6 L 1896.709 285.6 L 1896.709 285.6 Q 1893.861 289.607 1888.878 291.717 L 1888.878 291.717 L 1888.878 291.717 Q 1883.894 293.826 1881.521 293.932 L 1881.521 293.932 L 1881.521 293.932 Z  M 1871.818 259.654 L 1859.848 259.654 L 1859.848 288.342 L 1870.764 288.342 L 1870.764 288.342 Q 1874.191 288.342 1877.645 287.366 L 1877.645 287.366 L 1877.645 287.366 Q 1881.099 286.391 1883.578 283.912 L 1883.578 283.912 L 1883.578 283.912 Q 1887.48 280.168 1887.48 273.84 L 1887.48 273.84 L 1887.48 273.84 Q 1887.48 267.775 1883.42 263.768 L 1883.42 263.768 L 1883.42 263.768 Q 1879.148 259.654 1871.818 259.654 L 1871.818 259.654 L 1871.818 259.654 Z  M 1936.945 324.307 L 1936.945 324.307 L 1936.945 324.307 Q 1940.9 324.043 1944.539 322.224 L 1944.539 322.224 L 1944.539 322.224 Q 1948.178 320.404 1950.392 316.871 L 1950.392 316.871 L 1950.392 316.871 Q 1952.713 313.127 1952.713 307.801 L 1952.713 307.801 L 1952.713 307.221 L 1952.713 307.221 Q 1952.555 301.736 1948.599 298.889 L 1948.599 298.889 L 1948.599 298.889 Q 1946.807 297.518 1944.223 296.779 L 1944.223 296.779 L 1944.223 296.779 Q 1938.738 295.303 1932.858 294.644 L 1932.858 294.644 L 1932.858 294.644 Q 1926.978 293.984 1921.494 291.348 L 1921.494 291.348 L 1921.494 291.348 Q 1916.432 288.975 1913.979 284.413 L 1913.979 284.413 L 1913.979 284.413 Q 1911.527 279.852 1911.527 274.578 L 1911.527 274.578 L 1911.527 274.578 Q 1911.527 264.295 1918.752 257.703 L 1918.752 257.703 L 1918.752 257.703 Q 1926.24 250.795 1937.578 250.795 L 1937.578 250.795 L 1939.213 250.795 L 1939.213 250.795 Q 1951.394 251.322 1960.517 257.229 L 1960.517 257.229 L 1959.199 268.883 L 1959.199 268.883 Q 1958.988 270.781 1956.879 270.781 L 1956.879 270.781 L 1956.615 270.781 L 1956.615 270.781 Q 1955.033 270.676 1954.084 268.619 L 1954.084 268.619 L 1954.084 268.619 Q 1951.974 264.084 1947.94 260.973 L 1947.94 260.973 L 1947.94 260.973 Q 1943.906 257.861 1939.371 257.65 L 1939.371 257.65 L 1938.58 257.65 L 1938.58 257.65 Q 1934.045 257.65 1930.617 259.232 L 1930.617 259.232 L 1930.617 259.232 Q 1928.349 260.393 1927.031 261.764 L 1927.031 261.764 L 1927.031 261.764 Q 1925.765 263.135 1924.764 265.139 L 1924.764 265.139 L 1924.764 265.139 Q 1923.973 266.773 1923.551 268.988 L 1923.551 268.988 L 1923.551 268.988 Q 1923.182 270.623 1923.182 272.047 L 1923.182 272.047 L 1923.182 272.047 Q 1923.182 273.945 1923.762 275.58 L 1923.762 275.58 L 1923.762 275.58 Q 1924.764 278.797 1927.189 280.484 L 1927.189 280.484 L 1927.189 280.484 Q 1928.982 281.855 1931.144 282.383 L 1931.144 282.383 L 1931.144 282.383 Q 1932.463 282.752 1934.308 283.068 L 1934.308 283.068 L 1934.308 283.068 Q 1936.154 283.385 1938.211 283.701 L 1938.211 283.701 L 1938.211 283.701 Q 1941.217 284.176 1944.618 284.703 L 1944.618 284.703 L 1944.618 284.703 Q 1948.019 285.23 1951.289 286.18 L 1951.289 286.18 L 1951.289 286.18 Q 1956.932 288.025 1959.726 291.031 L 1959.726 291.031 L 1959.726 291.031 Q 1961.73 293.352 1963.049 296.094 L 1963.049 296.094 L 1963.049 296.094 Q 1964.525 299.732 1964.525 304.057 L 1964.525 304.057 L 1964.525 304.057 Q 1964.525 315.764 1954.98 323.568 L 1954.98 323.568 L 1954.98 323.568 Q 1950.023 327.629 1944.012 329.58 L 1944.012 329.58 L 1944.012 329.58 Q 1939.16 331.109 1933.676 331.32 L 1933.676 331.32 L 1933.676 331.32 Q 1932.515 331.373 1931.355 331.373 L 1931.355 331.373 L 1931.355 331.373 Q 1923.814 331.373 1916.221 329.053 L 1916.221 329.053 L 1911.053 314.656 L 1911.053 314.656 Q 1910.894 314.234 1910.894 313.813 L 1910.894 313.813 L 1910.894 313.813 Q 1910.894 313.021 1911.422 312.283 L 1911.422 312.283 L 1911.422 312.283 Q 1912.213 311.018 1913.9 311.018 L 1913.9 311.018 L 1913.9 311.018 Q 1915.324 311.387 1916.221 313.232 L 1916.221 313.232 L 1916.221 313.232 Q 1919.437 320.246 1924.183 322.514 L 1924.183 322.514 L 1924.183 322.514 Q 1928.086 324.412 1934.203 324.412 L 1934.203 324.412 L 1934.203 324.412 Q 1935.521 324.412 1936.945 324.307 Z  M 2032.183 258.02 L 2032.183 267.775 L 2032.183 267.775 Q 2032.183 269.938 2029.758 269.938 L 2029.758 269.938 L 2029.758 269.938 Q 2028.545 269.938 2026.594 267.301 L 2026.594 267.301 L 2026.594 267.301 Q 2023.957 263.715 2022.269 261.948 L 2022.269 261.948 L 2022.269 261.948 Q 2020.582 260.182 2018.051 260.182 L 2018.051 260.182 L 2006.133 260.182 L 2006.133 320.563 L 2006.133 320.563 Q 2006.133 323.305 2008.769 324.254 L 2008.769 324.254 L 2008.769 324.254 Q 2011.406 325.203 2011.406 327.207 L 2011.406 327.207 L 2011.406 327.207 Q 2011.406 329.316 2009.033 329.316 L 2009.033 329.316 L 1991.156 329.316 L 1991.156 329.316 Q 1988.73 329.316 1988.73 327.207 L 1988.73 327.207 L 1988.73 327.207 Q 1988.73 325.203 1991.367 324.254 L 1991.367 324.254 L 1991.367 324.254 Q 1994.004 323.305 1994.004 320.563 L 1994.004 320.563 L 1994.004 260.182 L 1981.875 260.182 L 1981.875 260.182 Q 1979.344 260.182 1977.603 261.948 L 1977.603 261.948 L 1977.603 261.948 Q 1975.863 263.715 1973.279 267.301 L 1973.279 267.301 L 1973.279 267.301 Q 1971.433 269.938 1970.168 269.938 L 1970.168 269.938 L 1970.168 269.938 Q 1967.742 269.938 1967.742 267.775 L 1967.742 267.775 L 1967.742 258.02 L 1967.742 258.02 Q 1967.742 254.645 1969.166 253.774 L 1969.166 253.774 L 1969.166 253.774 Q 1970.59 252.904 1975.072 252.904 L 1975.072 252.904 L 2024.853 252.904 L 2024.853 252.904 Q 2029.705 252.904 2030.944 253.722 L 2030.944 253.722 L 2030.944 253.722 Q 2032.183 254.539 2032.183 258.02 L 2032.183 258.02 L 2032.183 258.02 Z " fill="rgb(255,255,255)"/><path d=" M 1787.379 439.532 L 1787.379 439.532 L 1787.379 439.532 Q 1771.039 439.532 1758.426 429.1 L 1758.426 429.1 L 1758.426 429.1 Q 1745.812 418.669 1745.812 400.254 L 1745.812 400.254 L 1745.812 400.254 Q 1745.812 382.317 1758.08 371.487 L 1758.08 371.487 L 1758.08 371.487 Q 1770.348 360.656 1787.379 360.656 L 1787.379 360.656 L 1787.379 360.656 Q 1793.499 360.656 1800.392 362.013 L 1800.392 362.013 L 1800.392 362.013 Q 1807.284 363.37 1813.511 367.362 L 1813.511 367.362 L 1812.234 378.539 L 1812.234 378.539 Q 1812.021 379.497 1811.169 379.497 L 1811.169 379.497 L 1811.01 379.497 L 1811.01 379.497 Q 1810.371 379.443 1809.626 378.006 L 1809.626 378.006 L 1809.626 378.006 Q 1806.539 371.354 1800.365 368.213 L 1800.365 368.213 L 1800.365 368.213 Q 1794.617 365.393 1788.124 365.393 L 1788.124 365.393 L 1787.006 365.393 L 1787.006 365.393 Q 1772.636 366.031 1764.546 376.889 L 1764.546 376.889 L 1764.546 376.889 Q 1757.255 386.629 1757.255 398.444 L 1757.255 398.444 L 1757.255 398.444 Q 1757.255 399.775 1757.361 401.105 L 1757.361 401.105 L 1757.361 401.105 Q 1758.106 413.346 1765.983 423.405 L 1765.983 423.405 L 1765.983 423.405 Q 1773.86 433.464 1787.379 434.103 L 1787.379 434.103 L 1787.379 434.103 Q 1788.656 434.156 1789.827 434.156 L 1789.827 434.156 L 1789.827 434.156 Q 1796.64 434.156 1801.057 432.081 L 1801.057 432.081 L 1801.057 432.081 Q 1806.166 429.632 1809.626 422.234 L 1809.626 422.234 L 1809.626 422.234 Q 1810.318 420.744 1811.329 420.744 L 1811.329 420.744 L 1811.329 420.744 Q 1811.542 420.744 1811.755 420.797 L 1811.755 420.797 L 1811.755 420.797 Q 1812.606 421.117 1812.606 422.022 L 1812.606 422.022 L 1812.606 422.022 Q 1812.606 422.447 1812.393 422.98 L 1812.393 422.98 L 1807.763 435.913 L 1807.763 435.913 Q 1802.654 438.042 1797.385 438.787 L 1797.385 438.787 L 1797.385 438.787 Q 1792.116 439.532 1787.379 439.532 Z  M 1858.325 361.614 L 1861.624 361.614 L 1861.624 361.614 Q 1864.286 367.894 1868.197 376.995 L 1868.197 376.995 L 1868.197 376.995 Q 1872.109 386.096 1876.287 395.73 L 1876.287 395.73 L 1876.287 395.73 Q 1880.465 405.363 1884.377 414.464 L 1884.377 414.464 L 1884.377 414.464 Q 1888.289 423.565 1891.003 429.792 L 1891.003 429.792 L 1891.003 429.792 Q 1891.802 431.761 1894.143 433.358 L 1894.143 433.358 L 1894.143 433.358 Q 1895.368 434.156 1896.565 434.689 L 1896.565 434.689 L 1896.565 434.689 Q 1897.763 435.221 1898.508 435.7 L 1898.508 435.7 L 1898.508 435.7 Q 1899.04 436.072 1899.2 436.445 L 1899.2 436.445 L 1899.2 436.445 Q 1899.306 436.658 1899.306 436.871 L 1899.306 436.871 L 1899.306 436.871 Q 1899.306 437.03 1899.2 437.243 L 1899.2 437.243 L 1899.2 437.243 Q 1899.04 437.563 1898.561 437.563 L 1898.561 437.563 L 1880.572 437.563 L 1880.572 437.563 Q 1880.093 437.563 1879.614 437.243 L 1879.614 437.243 L 1879.614 437.243 Q 1879.081 436.871 1878.975 436.445 L 1878.975 436.445 L 1878.975 436.445 Q 1878.869 436.285 1878.869 436.126 L 1878.869 436.126 L 1878.869 436.126 Q 1878.869 435.647 1879.507 435.114 L 1879.507 435.114 L 1879.507 435.114 Q 1879.986 434.635 1880.678 434.103 L 1880.678 434.103 L 1880.678 434.103 Q 1881.37 433.571 1881.689 432.666 L 1881.689 432.666 L 1881.689 432.666 Q 1881.849 432.24 1881.849 431.708 L 1881.849 431.708 L 1881.849 431.708 Q 1881.849 430.803 1881.423 429.739 L 1881.423 429.739 L 1873.546 411.537 L 1842.517 411.537 L 1842.517 411.537 Q 1840.601 416.114 1838.712 420.664 L 1838.712 420.664 L 1838.712 420.664 Q 1836.823 425.215 1834.907 429.739 L 1834.907 429.739 L 1834.907 429.739 Q 1834.428 430.803 1834.374 431.655 L 1834.374 431.655 L 1834.374 431.655 Q 1834.321 432.027 1834.321 432.4 L 1834.321 432.4 L 1834.321 432.4 Q 1834.321 432.932 1834.481 433.411 L 1834.481 433.411 L 1834.481 433.411 Q 1834.64 434.103 1835.013 434.556 L 1835.013 434.556 L 1835.013 434.556 Q 1835.386 435.008 1835.545 435.487 L 1835.545 435.487 L 1835.545 435.487 Q 1835.599 435.913 1835.599 436.072 L 1835.599 436.072 L 1835.599 436.072 Q 1835.599 436.232 1835.492 436.445 L 1835.492 436.445 L 1835.492 436.445 Q 1835.12 437.563 1834.321 437.563 L 1834.321 437.563 L 1820.59 437.563 L 1820.59 437.563 Q 1820.057 437.563 1819.845 437.243 L 1819.845 437.243 L 1819.845 437.243 Q 1819.845 437.19 1819.738 436.977 L 1819.738 436.977 L 1819.738 436.977 Q 1819.738 436.871 1819.845 436.445 L 1819.845 436.445 L 1819.845 436.445 Q 1820.164 435.753 1821.654 435.061 L 1821.654 435.061 L 1821.654 435.061 Q 1822.453 434.689 1823.384 434.236 L 1823.384 434.236 L 1823.384 434.236 Q 1824.315 433.784 1825.273 433.145 L 1825.273 433.145 L 1825.273 433.145 Q 1827.243 431.761 1828.147 429.792 L 1828.147 429.792 L 1858.325 361.614 L 1858.325 361.614 Z  M 1844.274 407.226 L 1871.683 407.226 L 1857.792 374.813 L 1857.792 374.813 Q 1854.386 382.956 1851.006 391.046 L 1851.006 391.046 L 1851.006 391.046 Q 1847.627 399.136 1844.274 407.226 L 1844.274 407.226 L 1844.274 407.226 Z  M 1930.282 434.635 L 1930.282 434.635 L 1930.282 434.635 Q 1934.593 434.369 1938.558 432.373 L 1938.558 432.373 L 1938.558 432.373 Q 1942.523 430.378 1944.918 426.546 L 1944.918 426.546 L 1944.918 426.546 Q 1947.419 422.554 1947.419 416.912 L 1947.419 416.912 L 1947.419 416.327 L 1947.419 416.327 Q 1947.26 410.313 1942.842 407.119 L 1942.842 407.119 L 1942.842 407.119 Q 1940.82 405.629 1937.946 404.777 L 1937.946 404.777 L 1937.946 404.777 Q 1932.304 403.234 1926.423 402.595 L 1926.423 402.595 L 1926.423 402.595 Q 1920.542 401.957 1915.273 399.402 L 1915.273 399.402 L 1915.273 399.402 Q 1910.536 397.167 1908.194 392.829 L 1908.194 392.829 L 1908.194 392.829 Q 1905.852 388.491 1905.852 383.382 L 1905.852 383.382 L 1905.852 383.382 Q 1905.852 373.376 1912.825 367.043 L 1912.825 367.043 L 1912.825 367.043 Q 1919.956 360.443 1930.814 360.443 L 1930.814 360.443 L 1932.411 360.443 L 1932.411 360.443 Q 1944.279 360.975 1952.582 366.351 L 1952.582 366.351 L 1951.305 377.527 L 1951.305 377.527 Q 1951.198 378.485 1950.293 378.485 L 1950.293 378.485 L 1950.08 378.485 L 1950.08 378.485 Q 1949.389 378.432 1948.75 376.995 L 1948.75 376.995 L 1948.75 376.995 Q 1946.461 372.205 1942.097 368.826 L 1942.097 368.826 L 1942.097 368.826 Q 1937.733 365.446 1932.677 365.233 L 1932.677 365.233 L 1931.825 365.233 L 1931.825 365.233 Q 1926.929 365.233 1923.097 366.989 L 1923.097 366.989 L 1923.097 366.989 Q 1920.595 368.267 1919.105 369.81 L 1919.105 369.81 L 1919.105 369.81 Q 1917.721 371.3 1916.657 373.483 L 1916.657 373.483 L 1916.657 373.483 Q 1915.805 375.239 1915.326 377.581 L 1915.326 377.581 L 1915.326 377.581 Q 1914.953 379.284 1914.953 380.827 L 1914.953 380.827 L 1914.953 380.827 Q 1914.953 382.903 1915.592 384.659 L 1915.592 384.659 L 1915.592 384.659 Q 1916.71 388.225 1919.424 390.141 L 1919.424 390.141 L 1919.424 390.141 Q 1921.5 391.685 1923.948 392.27 L 1923.948 392.27 L 1923.948 392.27 Q 1925.279 392.643 1927.195 392.989 L 1927.195 392.989 L 1927.195 392.989 Q 1929.111 393.335 1931.186 393.654 L 1931.186 393.654 L 1931.186 393.654 Q 1934.22 394.133 1937.6 394.639 L 1937.6 394.639 L 1937.6 394.639 Q 1940.979 395.144 1944.173 396.102 L 1944.173 396.102 L 1944.173 396.102 Q 1949.495 397.805 1952.103 400.626 L 1952.103 400.626 L 1952.103 400.626 Q 1954.019 402.808 1955.243 405.416 L 1955.243 405.416 L 1955.243 405.416 Q 1956.68 408.929 1956.68 413.133 L 1956.68 413.133 L 1956.68 413.133 Q 1956.68 424.523 1947.419 432.081 L 1947.419 432.081 L 1947.419 432.081 Q 1942.629 436.019 1936.828 437.882 L 1936.828 437.882 L 1936.828 437.882 Q 1932.144 439.372 1926.822 439.585 L 1926.822 439.585 L 1926.822 439.585 Q 1925.651 439.638 1924.534 439.638 L 1924.534 439.638 L 1924.534 439.638 Q 1917.136 439.638 1910.376 437.563 L 1910.376 437.563 L 1905.32 423.512 L 1905.32 423.512 Q 1905.214 423.246 1905.214 422.98 L 1905.214 422.98 L 1905.214 422.98 Q 1905.214 422.447 1905.586 421.915 L 1905.586 421.915 L 1905.586 421.915 Q 1906.012 421.223 1906.704 421.223 L 1906.704 421.223 L 1906.704 421.223 Q 1907.343 421.383 1908.035 422.767 L 1908.035 422.767 L 1908.035 422.767 Q 1911.441 430.165 1916.603 432.666 L 1916.603 432.666 L 1916.603 432.666 Q 1920.861 434.742 1927.408 434.742 L 1927.408 434.742 L 1927.408 434.742 Q 1928.791 434.742 1930.282 434.635 Z  M 1982.227 401.531 L 1982.227 432.56 L 2004.953 432.56 L 2004.953 432.56 Q 2009.903 432.56 2013.336 428.754 L 2013.336 428.754 L 2013.336 428.754 Q 2016.768 424.949 2018.525 422.82 L 2018.525 422.82 L 2018.525 422.82 Q 2019.483 421.649 2020.015 421.649 L 2020.015 421.649 L 2020.015 421.649 Q 2021.133 421.649 2021.133 422.767 L 2021.133 422.767 L 2021.133 422.767 Q 2021.133 423.459 2021.026 423.884 L 2021.026 423.884 L 2017.141 437.563 L 1968.229 437.563 L 1968.229 437.563 Q 1967.271 437.563 1967.271 436.445 L 1967.271 436.445 L 1967.271 436.445 Q 1967.271 435.114 1969.932 434.183 L 1969.932 434.183 L 1969.932 434.183 Q 1972.594 433.252 1972.594 429.792 L 1972.594 429.792 L 1972.594 370.662 L 1972.594 370.662 Q 1972.594 367.202 1969.932 366.271 L 1969.932 366.271 L 1969.932 366.271 Q 1967.271 365.339 1967.271 363.956 L 1967.271 363.956 L 1967.271 363.956 Q 1967.271 362.838 1968.389 362.838 L 1968.389 362.838 L 2017.78 362.838 L 2017.78 376.516 L 2017.78 376.516 Q 2017.78 377.634 2016.662 377.634 L 2016.662 377.634 L 2016.662 377.634 Q 2016.13 377.634 2014.693 375.505 L 2014.693 375.505 L 2014.693 375.505 Q 2012.032 371.833 2010.089 369.81 L 2010.089 369.81 L 2010.089 369.81 Q 2008.146 367.788 2004.953 367.788 L 2004.953 367.788 L 1982.227 367.788 L 1982.227 396.688 L 1994.415 396.688 L 1994.415 396.688 Q 1997.821 396.688 1998.886 393.947 L 1998.886 393.947 L 1998.886 393.947 Q 1999.95 391.206 2001.334 391.206 L 2001.334 391.206 L 2001.334 391.206 Q 2002.398 391.206 2002.398 392.323 L 2002.398 392.323 L 2002.398 405.842 L 2002.398 405.842 Q 2002.398 406.96 2001.334 406.96 L 2001.334 406.96 L 2001.334 406.96 Q 1999.95 406.96 1998.726 404.245 L 1998.726 404.245 L 1998.726 404.245 Q 1997.502 401.531 1994.096 401.531 L 1994.096 401.531 L 1982.227 401.531 L 1982.227 401.531 Z " fill="rgb(255,255,255)"/><line x1="1747.246" y1="452" x2="2037.246" y2="452" vector-effect="non-scaling-stroke" stroke-width="1" stroke="rgb(255,255,255)" stroke-linejoin="miter" stroke-linecap="square" stroke-miterlimit="3"/><path d=" M 1992.667 461.858 L 1992.667 463.997 L 1987.335 463.997 L 1987.335 483.558 L 1985.01 483.558 L 1985.01 463.997 L 1979.678 463.997 L 1979.678 461.858 L 1992.667 461.858 L 1992.667 461.858 Z  M 1993.055 475.808 L 1993.055 475.808 L 1993.055 475.808 Q 1993.055 471.623 1994.496 469.655 L 1994.496 469.655 L 1994.496 469.655 Q 1995.938 467.686 1998.604 467.686 L 1998.604 467.686 L 1998.604 467.686 Q 2001.456 467.686 2002.804 469.701 L 2002.804 469.701 L 2002.804 469.701 Q 2004.153 471.716 2004.153 475.808 L 2004.153 475.808 L 2004.153 475.808 Q 2004.153 480.024 2002.696 481.977 L 2002.696 481.977 L 2002.696 481.977 Q 2001.239 483.93 1998.604 483.93 L 1998.604 483.93 L 1998.604 483.93 Q 1995.752 483.93 1994.403 481.915 L 1994.403 481.915 L 1994.403 481.915 Q 1993.055 479.9 1993.055 475.808 Z  M 1995.38 475.808 L 1995.38 475.808 L 1995.38 475.808 Q 1995.38 477.172 1995.55 478.288 L 1995.55 478.288 L 1995.55 478.288 Q 1995.721 479.404 1996.108 480.21 L 1996.108 480.21 L 1996.108 480.21 Q 1996.496 481.016 1997.116 481.466 L 1997.116 481.466 L 1997.116 481.466 Q 1997.736 481.915 1998.604 481.915 L 1998.604 481.915 L 1998.604 481.915 Q 2000.216 481.915 2001.022 480.474 L 2001.022 480.474 L 2001.022 480.474 Q 2001.828 479.032 2001.828 475.808 L 2001.828 475.808 L 2001.828 475.808 Q 2001.828 474.475 2001.657 473.344 L 2001.657 473.344 L 2001.657 473.344 Q 2001.487 472.212 2001.099 471.406 L 2001.099 471.406 L 2001.099 471.406 Q 2000.712 470.6 2000.092 470.151 L 2000.092 470.151 L 2000.092 470.151 Q 1999.472 469.701 1998.604 469.701 L 1998.604 469.701 L 1998.604 469.701 Q 1997.023 469.701 1996.201 471.158 L 1996.201 471.158 L 1996.201 471.158 Q 1995.38 472.615 1995.38 475.808 Z  M 2008.447 475.808 L 2008.447 475.808 L 2008.447 475.808 Q 2008.447 471.623 2009.888 469.655 L 2009.888 469.655 L 2009.888 469.655 Q 2011.33 467.686 2013.996 467.686 L 2013.996 467.686 L 2013.996 467.686 Q 2016.848 467.686 2018.196 469.701 L 2018.196 469.701 L 2018.196 469.701 Q 2019.545 471.716 2019.545 475.808 L 2019.545 475.808 L 2019.545 475.808 Q 2019.545 480.024 2018.088 481.977 L 2018.088 481.977 L 2018.088 481.977 Q 2016.631 483.93 2013.996 483.93 L 2013.996 483.93 L 2013.996 483.93 Q 2011.144 483.93 2009.795 481.915 L 2009.795 481.915 L 2009.795 481.915 Q 2008.447 479.9 2008.447 475.808 Z  M 2010.772 475.808 L 2010.772 475.808 L 2010.772 475.808 Q 2010.772 477.172 2010.942 478.288 L 2010.942 478.288 L 2010.942 478.288 Q 2011.113 479.404 2011.5 480.21 L 2011.5 480.21 L 2011.5 480.21 Q 2011.888 481.016 2012.508 481.466 L 2012.508 481.466 L 2012.508 481.466 Q 2013.128 481.915 2013.996 481.915 L 2013.996 481.915 L 2013.996 481.915 Q 2015.608 481.915 2016.414 480.474 L 2016.414 480.474 L 2016.414 480.474 Q 2017.22 479.032 2017.22 475.808 L 2017.22 475.808 L 2017.22 475.808 Q 2017.22 474.475 2017.049 473.344 L 2017.049 473.344 L 2017.049 473.344 Q 2016.879 472.212 2016.491 471.406 L 2016.491 471.406 L 2016.491 471.406 Q 2016.104 470.6 2015.484 470.151 L 2015.484 470.151 L 2015.484 470.151 Q 2014.864 469.701 2013.996 469.701 L 2013.996 469.701 L 2013.996 469.701 Q 2012.415 469.701 2011.593 471.158 L 2011.593 471.158 L 2011.593 471.158 Q 2010.772 472.615 2010.772 475.808 Z  M 2026.908 461.858 L 2026.908 479.869 L 2026.908 479.869 Q 2026.908 480.954 2027.202 481.419 L 2027.202 481.419 L 2027.202 481.419 Q 2027.497 481.884 2028.024 481.884 L 2028.024 481.884 L 2028.024 481.884 Q 2028.675 481.884 2029.543 481.543 L 2029.543 481.543 L 2029.76 483.341 L 2029.76 483.341 Q 2029.357 483.589 2028.628 483.744 L 2028.628 483.744 L 2028.628 483.744 Q 2027.9 483.899 2027.311 483.899 L 2027.311 483.899 L 2027.311 483.899 Q 2026.133 483.899 2025.404 483.171 L 2025.404 483.171 L 2025.404 483.171 Q 2024.676 482.442 2024.676 480.613 L 2024.676 480.613 L 2024.676 461.858 L 2026.908 461.858 L 2026.908 461.858 Z  M 1861.331 483.558 L 1861.331 462.075 L 1861.331 462.075 Q 1862.354 461.827 1863.578 461.719 L 1863.578 461.719 L 1863.578 461.719 Q 1864.803 461.61 1865.826 461.61 L 1865.826 461.61 L 1865.826 461.61 Q 1867.035 461.61 1868.12 461.905 L 1868.12 461.905 L 1868.12 461.905 Q 1869.205 462.199 1870.011 462.897 L 1870.011 462.897 L 1870.011 462.897 Q 1870.817 463.594 1871.297 464.726 L 1871.297 464.726 L 1871.297 464.726 Q 1871.778 465.857 1871.778 467.562 L 1871.778 467.562 L 1871.778 467.562 Q 1871.778 470.135 1870.708 471.685 L 1870.708 471.685 L 1870.708 471.685 Q 1869.639 473.235 1867.872 473.762 L 1867.872 473.762 L 1869.05 474.909 L 1873.328 483.558 L 1870.631 483.558 L 1865.981 474.103 L 1863.656 473.638 L 1863.656 483.558 L 1861.331 483.558 L 1861.331 483.558 Z  M 1863.656 463.935 L 1863.656 472.088 L 1865.516 472.088 L 1865.516 472.088 Q 1867.283 472.088 1868.306 471.003 L 1868.306 471.003 L 1868.306 471.003 Q 1869.329 469.918 1869.329 467.686 L 1869.329 467.686 L 1869.329 467.686 Q 1869.329 465.981 1868.476 464.865 L 1868.476 464.865 L 1868.476 464.865 Q 1867.624 463.749 1865.95 463.749 L 1865.95 463.749 L 1865.95 463.749 Q 1865.33 463.749 1864.663 463.796 L 1864.663 463.796 L 1864.663 463.796 Q 1863.997 463.842 1863.656 463.935 L 1863.656 463.935 L 1863.656 463.935 Z  M 1885.31 480.861 L 1886.116 482.504 L 1886.116 482.504 Q 1885.372 483.186 1884.225 483.558 L 1884.225 483.558 L 1884.225 483.558 Q 1883.078 483.93 1881.807 483.93 L 1881.807 483.93 L 1881.807 483.93 Q 1880.35 483.93 1879.28 483.357 L 1879.28 483.357 L 1879.28 483.357 Q 1878.211 482.783 1877.513 481.714 L 1877.513 481.714 L 1877.513 481.714 Q 1876.816 480.644 1876.49 479.156 L 1876.49 479.156 L 1876.49 479.156 Q 1876.165 477.668 1876.165 475.808 L 1876.165 475.808 L 1876.165 475.808 Q 1876.165 471.84 1877.622 469.763 L 1877.622 469.763 L 1877.622 469.763 Q 1879.079 467.686 1881.745 467.686 L 1881.745 467.686 L 1881.745 467.686 Q 1882.613 467.686 1883.465 467.903 L 1883.465 467.903 L 1883.465 467.903 Q 1884.318 468.12 1885 468.771 L 1885 468.771 L 1885 468.771 Q 1885.682 469.422 1886.1 470.6 L 1886.1 470.6 L 1886.1 470.6 Q 1886.519 471.778 1886.519 473.669 L 1886.519 473.669 L 1886.519 473.669 Q 1886.519 474.196 1886.472 474.801 L 1886.472 474.801 L 1886.472 474.801 Q 1886.426 475.405 1886.364 476.056 L 1886.364 476.056 L 1878.49 476.056 L 1878.49 476.056 Q 1878.49 477.389 1878.707 478.474 L 1878.707 478.474 L 1878.707 478.474 Q 1878.924 479.559 1879.389 480.319 L 1879.389 480.319 L 1879.389 480.319 Q 1879.854 481.078 1880.582 481.497 L 1880.582 481.497 L 1880.582 481.497 Q 1881.311 481.915 1882.396 481.915 L 1882.396 481.915 L 1882.396 481.915 Q 1883.233 481.915 1884.054 481.605 L 1884.054 481.605 L 1884.054 481.605 Q 1884.876 481.295 1885.31 480.861 L 1885.31 480.861 L 1885.31 480.861 Z  M 1878.521 474.196 L 1884.38 474.196 L 1884.38 474.196 Q 1884.442 471.871 1883.729 470.786 L 1883.729 470.786 L 1883.729 470.786 Q 1883.016 469.701 1881.776 469.701 L 1881.776 469.701 L 1881.776 469.701 Q 1880.35 469.701 1879.513 470.786 L 1879.513 470.786 L 1879.513 470.786 Q 1878.676 471.871 1878.521 474.196 L 1878.521 474.196 L 1878.521 474.196 Z  M 1890.72 482.969 L 1891.402 481.016 L 1891.402 481.016 Q 1892.022 481.388 1892.874 481.652 L 1892.874 481.652 L 1892.874 481.652 Q 1893.727 481.915 1894.626 481.915 L 1894.626 481.915 L 1894.626 481.915 Q 1895.649 481.915 1896.362 481.401 L 1896.362 481.401 L 1896.362 481.401 Q 1897.075 480.886 1897.075 479.732 L 1897.075 479.732 L 1897.075 479.732 Q 1897.075 478.766 1896.641 478.142 L 1896.641 478.142 L 1896.641 478.142 Q 1896.207 477.519 1895.54 477.02 L 1895.54 477.02 L 1895.54 477.02 Q 1894.874 476.521 1894.099 476.104 L 1894.099 476.104 L 1894.099 476.104 Q 1893.324 475.687 1892.657 475.1 L 1892.657 475.1 L 1892.657 475.1 Q 1891.991 474.513 1891.557 473.71 L 1891.557 473.71 L 1891.557 473.71 Q 1891.123 472.907 1891.123 471.671 L 1891.123 471.671 L 1891.123 471.671 Q 1891.123 469.694 1892.192 468.69 L 1892.192 468.69 L 1892.192 468.69 Q 1893.262 467.686 1895.215 467.686 L 1895.215 467.686 L 1895.215 467.686 Q 1896.486 467.686 1897.416 467.919 L 1897.416 467.919 L 1897.416 467.919 Q 1898.346 468.151 1899.028 468.554 L 1899.028 468.554 L 1898.439 470.414 L 1898.439 470.414 Q 1897.85 470.104 1897.075 469.903 L 1897.075 469.903 L 1897.075 469.903 Q 1896.3 469.701 1895.494 469.701 L 1895.494 469.701 L 1895.494 469.701 Q 1894.378 469.701 1893.866 470.166 L 1893.866 470.166 L 1893.866 470.166 Q 1893.355 470.631 1893.355 471.623 L 1893.355 471.623 L 1893.355 471.623 Q 1893.355 472.398 1893.789 472.941 L 1893.789 472.941 L 1893.789 472.941 Q 1894.223 473.483 1894.889 473.933 L 1894.889 473.933 L 1894.889 473.933 Q 1895.556 474.382 1896.331 474.847 L 1896.331 474.847 L 1896.331 474.847 Q 1897.106 475.312 1897.772 475.948 L 1897.772 475.948 L 1897.772 475.948 Q 1898.439 476.583 1898.873 477.467 L 1898.873 477.467 L 1898.873 477.467 Q 1899.307 478.35 1899.307 479.683 L 1899.307 479.683 L 1899.307 479.683 Q 1899.307 480.551 1899.028 481.326 L 1899.028 481.326 L 1899.028 481.326 Q 1898.749 482.101 1898.175 482.675 L 1898.175 482.675 L 1898.175 482.675 Q 1897.602 483.248 1896.749 483.589 L 1896.749 483.589 L 1896.749 483.589 Q 1895.897 483.93 1894.75 483.93 L 1894.75 483.93 L 1894.75 483.93 Q 1893.386 483.93 1892.394 483.667 L 1892.394 483.667 L 1892.394 483.667 Q 1891.402 483.403 1890.72 482.969 L 1890.72 482.969 L 1890.72 482.969 Z  M 1912.591 480.861 L 1913.397 482.504 L 1913.397 482.504 Q 1912.653 483.186 1911.506 483.558 L 1911.506 483.558 L 1911.506 483.558 Q 1910.359 483.93 1909.088 483.93 L 1909.088 483.93 L 1909.088 483.93 Q 1907.631 483.93 1906.561 483.357 L 1906.561 483.357 L 1906.561 483.357 Q 1905.492 482.783 1904.794 481.714 L 1904.794 481.714 L 1904.794 481.714 Q 1904.097 480.644 1903.771 479.156 L 1903.771 479.156 L 1903.771 479.156 Q 1903.446 477.668 1903.446 475.808 L 1903.446 475.808 L 1903.446 475.808 Q 1903.446 471.84 1904.903 469.763 L 1904.903 469.763 L 1904.903 469.763 Q 1906.36 467.686 1909.026 467.686 L 1909.026 467.686 L 1909.026 467.686 Q 1909.894 467.686 1910.746 467.903 L 1910.746 467.903 L 1910.746 467.903 Q 1911.599 468.12 1912.281 468.771 L 1912.281 468.771 L 1912.281 468.771 Q 1912.963 469.422 1913.381 470.6 L 1913.381 470.6 L 1913.381 470.6 Q 1913.8 471.778 1913.8 473.669 L 1913.8 473.669 L 1913.8 473.669 Q 1913.8 474.196 1913.753 474.801 L 1913.753 474.801 L 1913.753 474.801 Q 1913.707 475.405 1913.645 476.056 L 1913.645 476.056 L 1905.771 476.056 L 1905.771 476.056 Q 1905.771 477.389 1905.988 478.474 L 1905.988 478.474 L 1905.988 478.474 Q 1906.205 479.559 1906.67 480.319 L 1906.67 480.319 L 1906.67 480.319 Q 1907.135 481.078 1907.863 481.497 L 1907.863 481.497 L 1907.863 481.497 Q 1908.592 481.915 1909.677 481.915 L 1909.677 481.915 L 1909.677 481.915 Q 1910.514 481.915 1911.335 481.605 L 1911.335 481.605 L 1911.335 481.605 Q 1912.157 481.295 1912.591 480.861 L 1912.591 480.861 L 1912.591 480.861 Z  M 1905.802 474.196 L 1911.661 474.196 L 1911.661 474.196 Q 1911.723 471.871 1911.01 470.786 L 1911.01 470.786 L 1911.01 470.786 Q 1910.297 469.701 1909.057 469.701 L 1909.057 469.701 L 1909.057 469.701 Q 1907.631 469.701 1906.794 470.786 L 1906.794 470.786 L 1906.794 470.786 Q 1905.957 471.871 1905.802 474.196 L 1905.802 474.196 L 1905.802 474.196 Z  M 1919.52 470.755 L 1918.776 468.988 L 1918.776 468.988 Q 1919.675 468.43 1920.961 468.12 L 1920.961 468.12 L 1920.961 468.12 Q 1922.248 467.81 1923.674 467.81 L 1923.674 467.81 L 1923.674 467.81 Q 1924.976 467.81 1925.766 468.198 L 1925.766 468.198 L 1925.766 468.198 Q 1926.557 468.585 1927.006 469.252 L 1927.006 469.252 L 1927.006 469.252 Q 1927.456 469.918 1927.595 470.77 L 1927.595 470.77 L 1927.595 470.77 Q 1927.735 471.623 1927.735 472.553 L 1927.735 472.553 L 1927.735 472.553 Q 1927.735 474.413 1927.657 476.18 L 1927.657 476.18 L 1927.657 476.18 Q 1927.58 477.947 1927.58 479.528 L 1927.58 479.528 L 1927.58 479.528 Q 1927.58 480.706 1927.657 481.714 L 1927.657 481.714 L 1927.657 481.714 Q 1927.735 482.721 1927.952 483.62 L 1927.952 483.62 L 1926.247 483.62 L 1925.72 481.791 L 1925.596 481.791 L 1925.596 481.791 Q 1925.131 482.597 1924.232 483.186 L 1924.232 483.186 L 1924.232 483.186 Q 1923.333 483.775 1921.814 483.775 L 1921.814 483.775 L 1921.814 483.775 Q 1920.14 483.775 1919.07 482.613 L 1919.07 482.613 L 1919.07 482.613 Q 1918.001 481.45 1918.001 479.404 L 1918.001 479.404 L 1918.001 479.404 Q 1918.001 478.071 1918.45 477.172 L 1918.45 477.172 L 1918.45 477.172 Q 1918.9 476.273 1919.721 475.715 L 1919.721 475.715 L 1919.721 475.715 Q 1920.543 475.157 1921.674 474.925 L 1921.674 474.925 L 1921.674 474.925 Q 1922.806 474.692 1924.201 474.692 L 1924.201 474.692 L 1924.201 474.692 Q 1924.511 474.692 1924.821 474.692 L 1924.821 474.692 L 1924.821 474.692 Q 1925.131 474.692 1925.472 474.723 L 1925.472 474.723 L 1925.472 474.723 Q 1925.565 473.762 1925.565 473.018 L 1925.565 473.018 L 1925.565 473.018 Q 1925.565 471.251 1925.038 470.538 L 1925.038 470.538 L 1925.038 470.538 Q 1924.511 469.825 1923.116 469.825 L 1923.116 469.825 L 1923.116 469.825 Q 1922.248 469.825 1921.225 470.089 L 1921.225 470.089 L 1921.225 470.089 Q 1920.202 470.352 1919.52 470.755 L 1919.52 470.755 L 1919.52 470.755 Z  M 1925.503 479.776 L 1925.503 476.49 L 1925.503 476.49 Q 1925.193 476.459 1924.883 476.444 L 1924.883 476.444 L 1924.883 476.444 Q 1924.573 476.428 1924.263 476.428 L 1924.263 476.428 L 1924.263 476.428 Q 1923.519 476.428 1922.806 476.552 L 1922.806 476.552 L 1922.806 476.552 Q 1922.093 476.676 1921.535 476.986 L 1921.535 476.986 L 1921.535 476.986 Q 1920.977 477.296 1920.651 477.823 L 1920.651 477.823 L 1920.651 477.823 Q 1920.326 478.35 1920.326 479.156 L 1920.326 479.156 L 1920.326 479.156 Q 1920.326 480.396 1920.93 481.078 L 1920.93 481.078 L 1920.93 481.078 Q 1921.535 481.76 1922.496 481.76 L 1922.496 481.76 L 1922.496 481.76 Q 1923.798 481.76 1924.511 481.14 L 1924.511 481.14 L 1924.511 481.14 Q 1925.224 480.52 1925.503 479.776 L 1925.503 479.776 L 1925.503 479.776 Z  M 1933.331 483.558 L 1933.331 468.058 L 1934.912 468.058 L 1935.315 469.701 L 1935.408 469.701 L 1935.408 469.701 Q 1935.842 468.802 1936.539 468.291 L 1936.539 468.291 L 1936.539 468.291 Q 1937.237 467.779 1938.229 467.779 L 1938.229 467.779 L 1938.229 467.779 Q 1938.942 467.779 1939.841 468.058 L 1939.841 468.058 L 1939.407 470.321 L 1939.407 470.321 Q 1938.601 470.042 1937.981 470.042 L 1937.981 470.042 L 1937.981 470.042 Q 1936.989 470.042 1936.369 470.616 L 1936.369 470.616 L 1936.369 470.616 Q 1935.749 471.189 1935.563 472.15 L 1935.563 472.15 L 1935.563 483.558 L 1933.331 483.558 L 1933.331 483.558 Z  M 1951.73 480.985 L 1952.381 482.783 L 1952.381 482.783 Q 1951.606 483.372 1950.614 483.651 L 1950.614 483.651 L 1950.614 483.651 Q 1949.622 483.93 1948.537 483.93 L 1948.537 483.93 L 1948.537 483.93 Q 1947.049 483.93 1946.026 483.357 L 1946.026 483.357 L 1946.026 483.357 Q 1945.003 482.783 1944.367 481.714 L 1944.367 481.714 L 1944.367 481.714 Q 1943.732 480.644 1943.437 479.141 L 1943.437 479.141 L 1943.437 479.141 Q 1943.143 477.637 1943.143 475.808 L 1943.143 475.808 L 1943.143 475.808 Q 1943.143 471.84 1944.553 469.763 L 1944.553 469.763 L 1944.553 469.763 Q 1945.964 467.686 1948.599 467.686 L 1948.599 467.686 L 1948.599 467.686 Q 1949.808 467.686 1950.676 467.903 L 1950.676 467.903 L 1950.676 467.903 Q 1951.544 468.12 1952.164 468.461 L 1952.164 468.461 L 1951.544 470.414 L 1951.544 470.414 Q 1950.304 469.701 1948.847 469.701 L 1948.847 469.701 L 1948.847 469.701 Q 1947.173 469.701 1946.32 471.174 L 1946.32 471.174 L 1946.32 471.174 Q 1945.468 472.646 1945.468 475.808 L 1945.468 475.808 L 1945.468 475.808 Q 1945.468 477.079 1945.654 478.195 L 1945.654 478.195 L 1945.654 478.195 Q 1945.84 479.311 1946.274 480.133 L 1946.274 480.133 L 1946.274 480.133 Q 1946.708 480.954 1947.39 481.435 L 1947.39 481.435 L 1947.39 481.435 Q 1948.072 481.915 1949.095 481.915 L 1949.095 481.915 L 1949.095 481.915 Q 1949.901 481.915 1950.598 481.636 L 1950.598 481.636 L 1950.598 481.636 Q 1951.296 481.357 1951.73 480.985 L 1951.73 480.985 L 1951.73 480.985 Z  M 1967.029 483.558 L 1964.797 483.558 L 1964.797 474.134 L 1964.797 474.134 Q 1964.797 471.964 1964.285 470.833 L 1964.285 470.833 L 1964.285 470.833 Q 1963.774 469.701 1962.255 469.701 L 1962.255 469.701 L 1962.255 469.701 Q 1961.17 469.701 1960.286 470.476 L 1960.286 470.476 L 1960.286 470.476 Q 1959.403 471.251 1959.093 472.429 L 1959.093 472.429 L 1959.093 483.558 L 1956.861 483.558 L 1956.861 461.858 L 1959.093 461.858 L 1959.093 469.515 L 1959.186 469.515 L 1959.186 469.515 Q 1959.806 468.709 1960.72 468.198 L 1960.72 468.198 L 1960.72 468.198 Q 1961.635 467.686 1962.999 467.686 L 1962.999 467.686 L 1962.999 467.686 Q 1964.022 467.686 1964.781 467.965 L 1964.781 467.965 L 1964.781 467.965 Q 1965.541 468.244 1966.037 468.926 L 1966.037 468.926 L 1966.037 468.926 Q 1966.533 469.608 1966.781 470.74 L 1966.781 470.74 L 1966.781 470.74 Q 1967.029 471.871 1967.029 473.545 L 1967.029 473.545 L 1967.029 483.558 L 1967.029 483.558 Z  M 1796.135 481.419 L 1796.135 483.558 L 1785.688 483.558 L 1785.688 461.858 L 1788.013 461.858 L 1788.013 481.419 L 1796.135 481.419 L 1796.135 481.419 Z  M 1807.497 480.861 L 1808.303 482.504 L 1808.303 482.504 Q 1807.559 483.186 1806.412 483.558 L 1806.412 483.558 L 1806.412 483.558 Q 1805.265 483.93 1803.994 483.93 L 1803.994 483.93 L 1803.994 483.93 Q 1802.537 483.93 1801.467 483.357 L 1801.467 483.357 L 1801.467 483.357 Q 1800.398 482.783 1799.7 481.714 L 1799.7 481.714 L 1799.7 481.714 Q 1799.003 480.644 1798.677 479.156 L 1798.677 479.156 L 1798.677 479.156 Q 1798.352 477.668 1798.352 475.808 L 1798.352 475.808 L 1798.352 475.808 Q 1798.352 471.84 1799.809 469.763 L 1799.809 469.763 L 1799.809 469.763 Q 1801.266 467.686 1803.932 467.686 L 1803.932 467.686 L 1803.932 467.686 Q 1804.8 467.686 1805.652 467.903 L 1805.652 467.903 L 1805.652 467.903 Q 1806.505 468.12 1807.187 468.771 L 1807.187 468.771 L 1807.187 468.771 Q 1807.869 469.422 1808.287 470.6 L 1808.287 470.6 L 1808.287 470.6 Q 1808.706 471.778 1808.706 473.669 L 1808.706 473.669 L 1808.706 473.669 Q 1808.706 474.196 1808.659 474.801 L 1808.659 474.801 L 1808.659 474.801 Q 1808.613 475.405 1808.551 476.056 L 1808.551 476.056 L 1800.677 476.056 L 1800.677 476.056 Q 1800.677 477.389 1800.894 478.474 L 1800.894 478.474 L 1800.894 478.474 Q 1801.111 479.559 1801.576 480.319 L 1801.576 480.319 L 1801.576 480.319 Q 1802.041 481.078 1802.769 481.497 L 1802.769 481.497 L 1802.769 481.497 Q 1803.498 481.915 1804.583 481.915 L 1804.583 481.915 L 1804.583 481.915 Q 1805.42 481.915 1806.241 481.605 L 1806.241 481.605 L 1806.241 481.605 Q 1807.063 481.295 1807.497 480.861 L 1807.497 480.861 L 1807.497 480.861 Z  M 1800.708 474.196 L 1806.567 474.196 L 1806.567 474.196 Q 1806.629 471.871 1805.916 470.786 L 1805.916 470.786 L 1805.916 470.786 Q 1805.203 469.701 1803.963 469.701 L 1803.963 469.701 L 1803.963 469.701 Q 1802.537 469.701 1801.7 470.786 L 1801.7 470.786 L 1801.7 470.786 Q 1800.863 471.871 1800.708 474.196 L 1800.708 474.196 L 1800.708 474.196 Z  M 1823.354 468.709 L 1823.354 484.271 L 1823.354 484.271 Q 1823.354 487.278 1822.021 488.704 L 1822.021 488.704 L 1822.021 488.704 Q 1820.688 490.13 1818.146 490.13 L 1818.146 490.13 L 1818.146 490.13 Q 1816.596 490.13 1815.604 489.867 L 1815.604 489.867 L 1815.604 489.867 Q 1814.612 489.603 1813.992 489.262 L 1813.992 489.262 L 1814.643 487.34 L 1814.643 487.34 Q 1815.263 487.619 1816.007 487.867 L 1816.007 487.867 L 1816.007 487.867 Q 1816.751 488.115 1817.836 488.115 L 1817.836 488.115 L 1817.836 488.115 Q 1819.727 488.115 1820.424 487.061 L 1820.424 487.061 L 1820.424 487.061 Q 1821.122 486.007 1821.122 483.527 L 1821.122 483.527 L 1821.122 482.38 L 1821.029 482.38 L 1821.029 482.38 Q 1820.533 483.093 1819.758 483.496 L 1819.758 483.496 L 1819.758 483.496 Q 1818.983 483.899 1817.774 483.899 L 1817.774 483.899 L 1817.774 483.899 Q 1815.263 483.899 1814.085 481.962 L 1814.085 481.962 L 1814.085 481.962 Q 1812.907 480.024 1812.907 475.87 L 1812.907 475.87 L 1812.907 475.87 Q 1812.907 471.871 1814.441 469.825 L 1814.441 469.825 L 1814.441 469.825 Q 1815.976 467.779 1818.983 467.779 L 1818.983 467.779 L 1818.983 467.779 Q 1820.44 467.779 1821.494 468.058 L 1821.494 468.058 L 1821.494 468.058 Q 1822.548 468.337 1823.354 468.709 L 1823.354 468.709 L 1823.354 468.709 Z  M 1821.122 479.404 L 1821.122 470.29 L 1821.122 470.29 Q 1820.192 469.794 1818.735 469.794 L 1818.735 469.794 L 1818.735 469.794 Q 1817.154 469.794 1816.193 471.236 L 1816.193 471.236 L 1816.193 471.236 Q 1815.232 472.677 1815.232 475.839 L 1815.232 475.839 L 1815.232 475.839 Q 1815.232 477.141 1815.387 478.242 L 1815.387 478.242 L 1815.387 478.242 Q 1815.542 479.342 1815.914 480.164 L 1815.914 480.164 L 1815.914 480.164 Q 1816.286 480.985 1816.859 481.435 L 1816.859 481.435 L 1816.859 481.435 Q 1817.433 481.884 1818.27 481.884 L 1818.27 481.884 L 1818.27 481.884 Q 1819.448 481.884 1820.13 481.264 L 1820.13 481.264 L 1820.13 481.264 Q 1820.812 480.644 1821.122 479.404 L 1821.122 479.404 L 1821.122 479.404 Z  M 1829.57 470.755 L 1828.826 468.988 L 1828.826 468.988 Q 1829.725 468.43 1831.011 468.12 L 1831.011 468.12 L 1831.011 468.12 Q 1832.298 467.81 1833.724 467.81 L 1833.724 467.81 L 1833.724 467.81 Q 1835.026 467.81 1835.816 468.198 L 1835.816 468.198 L 1835.816 468.198 Q 1836.607 468.585 1837.056 469.252 L 1837.056 469.252 L 1837.056 469.252 Q 1837.506 469.918 1837.645 470.77 L 1837.645 470.77 L 1837.645 470.77 Q 1837.785 471.623 1837.785 472.553 L 1837.785 472.553 L 1837.785 472.553 Q 1837.785 474.413 1837.707 476.18 L 1837.707 476.18 L 1837.707 476.18 Q 1837.63 477.947 1837.63 479.528 L 1837.63 479.528 L 1837.63 479.528 Q 1837.63 480.706 1837.707 481.714 L 1837.707 481.714 L 1837.707 481.714 Q 1837.785 482.721 1838.002 483.62 L 1838.002 483.62 L 1836.297 483.62 L 1835.77 481.791 L 1835.646 481.791 L 1835.646 481.791 Q 1835.181 482.597 1834.282 483.186 L 1834.282 483.186 L 1834.282 483.186 Q 1833.383 483.775 1831.864 483.775 L 1831.864 483.775 L 1831.864 483.775 Q 1830.19 483.775 1829.12 482.613 L 1829.12 482.613 L 1829.12 482.613 Q 1828.051 481.45 1828.051 479.404 L 1828.051 479.404 L 1828.051 479.404 Q 1828.051 478.071 1828.5 477.172 L 1828.5 477.172 L 1828.5 477.172 Q 1828.95 476.273 1829.771 475.715 L 1829.771 475.715 L 1829.771 475.715 Q 1830.593 475.157 1831.724 474.925 L 1831.724 474.925 L 1831.724 474.925 Q 1832.856 474.692 1834.251 474.692 L 1834.251 474.692 L 1834.251 474.692 Q 1834.561 474.692 1834.871 474.692 L 1834.871 474.692 L 1834.871 474.692 Q 1835.181 474.692 1835.522 474.723 L 1835.522 474.723 L 1835.522 474.723 Q 1835.615 473.762 1835.615 473.018 L 1835.615 473.018 L 1835.615 473.018 Q 1835.615 471.251 1835.088 470.538 L 1835.088 470.538 L 1835.088 470.538 Q 1834.561 469.825 1833.166 469.825 L 1833.166 469.825 L 1833.166 469.825 Q 1832.298 469.825 1831.275 470.089 L 1831.275 470.089 L 1831.275 470.089 Q 1830.252 470.352 1829.57 470.755 L 1829.57 470.755 L 1829.57 470.755 Z  M 1835.553 479.776 L 1835.553 476.49 L 1835.553 476.49 Q 1835.243 476.459 1834.933 476.444 L 1834.933 476.444 L 1834.933 476.444 Q 1834.623 476.428 1834.313 476.428 L 1834.313 476.428 L 1834.313 476.428 Q 1833.569 476.428 1832.856 476.552 L 1832.856 476.552 L 1832.856 476.552 Q 1832.143 476.676 1831.585 476.986 L 1831.585 476.986 L 1831.585 476.986 Q 1831.027 477.296 1830.701 477.823 L 1830.701 477.823 L 1830.701 477.823 Q 1830.376 478.35 1830.376 479.156 L 1830.376 479.156 L 1830.376 479.156 Q 1830.376 480.396 1830.98 481.078 L 1830.98 481.078 L 1830.98 481.078 Q 1831.585 481.76 1832.546 481.76 L 1832.546 481.76 L 1832.546 481.76 Q 1833.848 481.76 1834.561 481.14 L 1834.561 481.14 L 1834.561 481.14 Q 1835.274 480.52 1835.553 479.776 L 1835.553 479.776 L 1835.553 479.776 Z  M 1845.768 461.858 L 1845.768 479.869 L 1845.768 479.869 Q 1845.768 480.954 1846.062 481.419 L 1846.062 481.419 L 1846.062 481.419 Q 1846.357 481.884 1846.884 481.884 L 1846.884 481.884 L 1846.884 481.884 Q 1847.535 481.884 1848.403 481.543 L 1848.403 481.543 L 1848.62 483.341 L 1848.62 483.341 Q 1848.217 483.589 1847.488 483.744 L 1847.488 483.744 L 1847.488 483.744 Q 1846.76 483.899 1846.171 483.899 L 1846.171 483.899 L 1846.171 483.899 Q 1844.993 483.899 1844.264 483.171 L 1844.264 483.171 L 1844.264 483.171 Q 1843.536 482.442 1843.536 480.613 L 1843.536 480.613 L 1843.536 461.858 L 1845.768 461.858 L 1845.768 461.858 Z  M 1761.336 483.558 L 1759.569 477.482 L 1753.431 477.482 L 1751.695 483.558 L 1749.401 483.558 L 1755.942 461.517 L 1757.213 461.517 L 1763.754 483.558 L 1761.336 483.558 L 1761.336 483.558 Z  M 1755.88 468.792 L 1754.051 475.467 L 1759.011 475.467 L 1757.12 468.729 L 1756.531 465.454 L 1756.469 465.454 L 1755.88 468.792 L 1755.88 468.792 Z  M 1768.358 483.558 L 1768.358 461.858 L 1770.683 461.858 L 1770.683 483.558 L 1768.358 483.558 L 1768.358 483.558 Z " fill="rgb(255,255,255)"/></g></svg>