<?xml version="1.0" encoding="UTF-8" standalone="no"?><!-- Generator: Gravit.io --><svg xmlns="http://www.w3.org/2000/svg" xmlns:xlink="http://www.w3.org/1999/xlink" style="isolation:isolate" viewBox="528.169 215 300 287.825" width="300pt" height="287.825pt"><g><linearGradient id="_lgradient_0" x1="0.18553496298176053" y1="0.8360674327830768" x2="0.7531592798947279" y2="0.13312551753102286" gradientTransform="matrix(254.831,0,0,287.825,528.169,215)" gradientUnits="userSpaceOnUse"><stop offset="0%" stop-opacity="1" style="stop-color:rgb(86,133,243)"/><stop offset="97.91666666666666%" stop-opacity="1" style="stop-color:rgb(26,89,218)"/></linearGradient><path d=" M 529.403 425.199 L 528.786 360.114 L 528.17 295.028 C 528.128 290.586 531.201 285.148 535.028 282.892 L 591.146 249.812 L 647.265 216.731 C 651.092 214.475 657.34 214.416 661.21 216.599 L 717.945 248.611 L 774.68 280.622 C 778.549 282.805 781.725 288.184 781.767 292.626 L 782.383 357.712 L 783 422.797 C 783.042 427.239 779.969 432.677 776.142 434.933 L 720.023 468.013 L 663.904 501.094 C 660.077 503.35 653.829 503.409 649.96 501.226 L 593.225 469.214 L 536.489 437.203 C 532.62 435.02 529.445 429.641 529.403 425.199 Z  M 725.141 352.269 C 722.783 353.638 720.044 354.422 717.124 354.422 C 714.158 354.422 711.38 353.614 708.998 352.205 L 689.714 371.489 C 691.241 373.94 692.124 376.834 692.124 379.932 C 692.124 388.763 684.954 395.932 676.124 395.932 C 667.293 395.932 660.124 388.763 660.124 379.932 L 660.124 379.932 L 660.124 379.932 L 660.124 379.932 L 660.124 379.932 L 660.124 379.932 L 660.124 379.932 L 660.124 379.932 L 660.124 379.932 L 660.124 379.932 L 660.124 379.932 L 660.124 379.932 C 660.124 371.102 667.293 363.932 676.124 363.932 C 678.956 363.932 681.617 364.67 683.926 365.963 L 683.926 365.963 L 683.926 365.963 L 683.926 365.963 L 683.926 365.963 L 703.341 346.549 C 701.932 344.166 701.124 341.388 701.124 338.422 L 701.124 338.422 L 701.124 338.422 L 701.124 338.422 L 701.124 338.422 C 701.124 335.502 701.908 332.763 703.277 330.405 L 683.815 310.943 C 681.533 312.198 678.911 312.913 676.124 312.913 C 667.293 312.913 660.124 305.743 660.124 296.913 L 660.124 296.913 L 660.124 296.913 L 660.124 296.913 L 660.124 296.913 L 660.124 296.913 L 660.124 296.913 L 660.124 296.913 L 660.124 296.913 L 660.124 296.913 L 660.124 296.913 L 660.124 296.913 L 660.124 296.913 L 660.124 296.913 L 660.124 296.913 L 660.124 296.913 L 660.124 296.913 L 660.124 296.913 L 660.124 296.913 C 660.124 288.082 667.293 280.913 676.124 280.913 C 684.954 280.913 692.124 288.082 692.124 296.913 C 692.124 300.055 691.216 302.988 689.648 305.462 L 708.89 324.704 C 711.296 323.256 714.113 322.422 717.124 322.422 C 720.089 322.422 722.868 323.231 725.25 324.64 L 725.58 324.31 L 727.621 326.351 C 728.181 326.839 728.707 327.365 729.195 327.925 L 731.236 329.967 L 730.907 330.296 C 732.315 332.679 733.124 335.457 733.124 338.422 C 733.124 341.433 732.291 344.25 730.842 346.656 L 731.064 346.878 L 729.924 348.018 C 729.013 349.232 727.933 350.312 726.719 351.223 L 725.408 352.535 L 725.141 352.269 Z  M 642.299 311.215 C 640.14 312.301 637.703 312.913 635.124 312.913 C 632.271 312.913 629.592 312.164 627.271 310.854 L 627.271 310.854 L 627.271 310.854 L 627.271 310.854 L 627.271 310.854 L 627.271 310.854 L 627.271 310.854 L 607.829 330.296 C 609.237 332.679 610.046 335.457 610.046 338.422 C 610.046 347.253 602.876 354.422 594.046 354.422 C 591.08 354.422 588.302 353.614 585.92 352.205 L 585.59 352.535 L 583.549 350.494 C 582.988 350.006 582.462 349.48 581.974 348.92 L 579.933 346.878 L 580.263 346.549 C 578.854 344.166 578.046 341.388 578.046 338.422 L 578.046 338.422 L 578.046 338.422 L 578.046 338.422 C 578.046 329.592 585.215 322.422 594.046 322.422 C 597.011 322.422 599.789 323.231 602.172 324.64 L 621.504 305.308 C 619.995 302.867 619.124 299.99 619.124 296.913 L 619.124 296.913 L 619.124 296.913 L 619.124 296.913 L 619.124 296.913 L 619.124 296.913 L 619.124 296.913 L 619.124 296.913 L 619.124 296.913 L 619.124 296.913 L 619.124 296.913 L 619.124 296.913 C 619.124 288.082 626.293 280.913 635.124 280.913 C 643.954 280.913 651.124 288.082 651.124 296.913 C 651.124 300.259 650.094 303.367 648.334 305.937 L 667.405 325.008 C 669.914 323.373 672.909 322.422 676.124 322.422 C 684.954 322.422 692.124 329.592 692.124 338.422 C 692.124 347.253 684.954 354.422 676.124 354.422 C 667.293 354.422 660.124 347.253 660.124 338.422 L 660.124 338.422 L 660.124 338.422 L 660.124 338.422 L 660.124 338.422 L 660.124 338.422 L 660.124 338.422 L 660.124 338.422 L 660.124 338.422 L 660.124 338.422 L 660.124 338.422 L 660.124 338.422 L 660.124 338.422 C 660.124 335.709 660.801 333.152 661.995 330.911 L 642.299 311.215 L 642.299 311.215 Z  M 667.998 407.13 C 670.38 405.721 673.158 404.913 676.124 404.913 C 679.089 404.913 681.868 405.721 684.25 407.13 L 684.25 407.13 L 684.25 407.13 L 684.25 407.13 L 703.333 388.046 C 701.929 385.667 701.124 382.893 701.124 379.932 L 701.124 379.932 L 701.124 379.932 L 701.124 379.932 L 701.124 379.932 C 701.124 371.102 708.293 363.932 717.124 363.932 C 725.954 363.932 733.124 371.102 733.124 379.932 C 733.124 388.763 725.954 395.932 717.124 395.932 C 714.153 395.932 711.37 395.121 708.985 393.708 L 689.907 412.786 C 691.315 415.169 692.124 417.947 692.124 420.913 C 692.124 423.878 691.315 426.656 689.907 429.039 L 690.124 429.256 L 689.075 430.304 C 688.083 431.669 686.881 432.872 685.515 433.864 L 684.467 434.913 L 684.25 434.695 C 681.868 436.104 679.089 436.913 676.124 436.913 C 673.158 436.913 670.38 436.104 667.998 434.695 L 667.668 435.025 L 665.627 432.984 C 665.066 432.496 664.54 431.97 664.052 431.41 L 662.011 429.368 L 662.341 429.039 C 660.932 426.656 660.124 423.878 660.124 420.913 L 660.124 420.913 L 660.124 420.913 L 660.124 420.913 L 660.124 420.913 L 660.124 420.913 L 660.124 420.913 L 660.124 420.913 L 660.124 420.913 L 660.124 420.913 L 660.124 420.913 L 660.124 420.913 L 660.124 420.913 C 660.124 417.947 660.932 415.169 662.341 412.786 L 643.262 393.708 C 640.877 395.121 638.095 395.932 635.124 395.932 C 626.293 395.932 619.124 388.763 619.124 379.932 L 619.124 379.932 L 619.124 379.932 L 619.124 379.932 L 619.124 379.932 L 619.124 379.932 L 619.124 379.932 L 619.124 379.932 L 619.124 379.932 L 619.124 379.932 L 619.124 379.932 L 619.124 379.932 L 619.124 379.932 C 619.124 371.102 626.293 363.932 635.124 363.932 C 643.954 363.932 651.124 371.102 651.124 379.932 C 651.124 382.893 650.318 385.667 648.914 388.046 L 667.998 407.13 L 667.998 407.13 L 667.998 407.13 Z  M 602.365 393.599 C 599.94 395.079 597.092 395.932 594.046 395.932 C 585.215 395.932 578.046 388.763 578.046 379.932 L 578.046 379.932 L 578.046 379.932 L 578.046 379.932 L 578.046 379.932 L 578.046 379.932 C 578.046 371.102 585.215 363.932 594.046 363.932 C 597.092 363.932 599.94 364.786 602.365 366.266 L 621.623 347.008 C 620.041 344.527 619.124 341.581 619.124 338.422 L 619.124 338.422 L 619.124 338.422 L 619.124 338.422 L 619.124 338.422 L 619.124 338.422 L 619.124 338.422 C 619.124 329.592 626.293 322.422 635.124 322.422 C 643.954 322.422 651.124 329.592 651.124 338.422 C 651.124 347.253 643.954 354.422 635.124 354.422 C 632.352 354.422 629.744 353.716 627.47 352.474 L 627.47 352.474 L 627.47 352.474 L 627.47 352.474 L 607.942 372.002 C 609.281 374.34 610.046 377.048 610.046 379.932 C 610.046 382.817 609.281 385.525 607.942 387.863 L 627.131 407.052 C 629.483 405.691 632.213 404.913 635.124 404.913 C 643.954 404.913 651.124 412.082 651.124 420.913 C 651.124 429.743 643.954 436.913 635.124 436.913 C 626.293 436.913 619.124 429.743 619.124 420.913 L 619.124 420.913 L 619.124 420.913 L 619.124 420.913 L 619.124 420.913 L 619.124 420.913 L 619.124 420.913 L 619.124 420.913 L 619.124 420.913 L 619.124 420.913 L 619.124 420.913 L 619.124 420.913 L 619.124 420.913 L 619.124 420.913 C 619.124 417.892 619.963 415.065 621.42 412.654 L 602.365 393.599 L 602.365 393.599 L 602.365 393.599 L 602.365 393.599 Z " fill-rule="evenodd" fill="url(#_lgradient_0)"/></g></svg>