<!DOCTYPE svg PUBLIC "-//W3C//DTD SVG 20010904//EN" "http://www.w3.org/TR/2001/REC-SVG-20010904/DTD/svg10.dtd">
<svg version="1.0" xmlns="http://www.w3.org/2000/svg" width="488px" height="511px" viewBox="0 0 4880 5110" preserveAspectRatio="xMidYMid meet">
<g id="layer101" fill="#070d16" stroke="none">
 <path d="M2373 4889 c-65 -33 -124 -66 -133 -73 -8 -8 -51 -33 -95 -56 -115 -61 -183 -100 -240 -137 -27 -18 -57 -33 -65 -33 -9 0 -25 -7 -35 -16 -31 -24 -143 -90 -220 -129 -38 -19 -106 -57 -150 -85 -44 -27 -87 -52 -95 -55 -29 -11 -115 -58 -130 -70 -8 -7 -71 -43 -140 -80 -69 -37 -132 -72 -140 -79 -8 -7 -40 -25 -70 -41 -30 -15 -62 -31 -70 -36 -155 -87 -211 -131 -241 -189 l-23 -45 -7 -580 c-4 -319 -7 -804 -8 -1078 -1 -547 -3 -532 60 -596 36 -36 160 -121 177 -121 6 0 33 -15 61 -33 127 -81 170 -107 178 -107 6 0 46 -24 91 -53 88 -57 115 -72 211 -124 36 -19 79 -45 95 -58 17 -13 62 -40 100 -60 38 -20 97 -55 130 -76 34 -22 80 -48 103 -59 23 -11 83 -47 135 -80 51 -33 121 -73 155 -90 34 -17 68 -36 75 -43 14 -14 69 -47 163 -98 33 -17 79 -45 103 -60 75 -50 104 -61 161 -61 51 -1 127 21 141 40 6 10 67 45 185 107 50 26 97 53 105 59 28 23 108 66 123 66 9 0 17 4 19 8 3 9 99 66 213 127 111 60 207 116 234 137 13 10 29 18 36 18 7 0 66 32 131 71 64 39 128 75 142 80 14 5 68 36 121 68 53 32 125 73 161 91 36 18 84 46 107 62 24 16 64 39 90 51 94 44 144 80 175 126 l32 46 7 280 c4 154 9 649 11 1100 l3 820 -25 50 c-26 52 -24 50 -245 181 -44 26 -123 73 -175 104 -52 31 -143 86 -202 121 -59 35 -129 75 -155 89 -27 14 -91 52 -143 84 -52 33 -113 69 -135 79 -22 11 -69 39 -105 62 -36 23 -92 57 -125 75 -69 38 -90 51 -162 97 -28 18 -71 42 -95 53 -24 11 -79 43 -123 71 -44 29 -117 72 -163 95 -71 38 -92 44 -142 44 -53 0 -72 -7 -177 -61z"/>
 </g>
<g id="layer102" fill="#273037" stroke="none">
 <path d="M2373 4889 c-65 -33 -124 -66 -133 -73 -8 -8 -51 -33 -95 -56 -115 -61 -183 -100 -240 -137 -27 -18 -57 -33 -65 -33 -9 0 -25 -7 -35 -16 -31 -24 -143 -90 -220 -129 -38 -19 -106 -57 -150 -85 -44 -27 -87 -52 -95 -55 -29 -11 -115 -58 -130 -70 -8 -7 -71 -43 -140 -80 -69 -37 -132 -72 -140 -79 -8 -7 -40 -25 -70 -41 -30 -15 -62 -31 -70 -36 -155 -87 -211 -131 -241 -189 l-23 -45 -7 -580 c-4 -319 -7 -804 -8 -1078 -1 -547 -3 -532 60 -596 36 -36 160 -121 177 -121 6 0 33 -15 61 -33 127 -81 170 -107 178 -107 6 0 46 -24 91 -53 88 -57 115 -72 211 -124 36 -19 79 -45 95 -58 17 -13 62 -40 100 -60 38 -20 97 -55 130 -76 34 -22 80 -48 103 -59 23 -11 83 -47 135 -80 51 -33 121 -73 155 -90 34 -17 68 -36 75 -43 14 -14 69 -47 163 -98 33 -17 79 -45 103 -60 75 -50 104 -61 161 -61 51 -1 127 21 141 40 6 10 67 45 185 107 50 26 97 53 105 59 28 23 108 66 123 66 9 0 17 4 19 8 3 9 99 66 213 127 111 60 207 116 234 137 13 10 29 18 36 18 7 0 66 32 131 71 64 39 128 75 142 80 14 5 68 36 121 68 53 32 125 73 161 91 36 18 84 46 107 62 24 16 64 39 90 51 94 44 144 80 175 126 l32 46 7 280 c4 154 9 649 11 1100 l3 820 -25 50 c-26 52 -24 50 -245 181 -44 26 -123 73 -175 104 -52 31 -143 86 -202 121 -59 35 -129 75 -155 89 -27 14 -91 52 -143 84 -52 33 -113 69 -135 79 -22 11 -69 39 -105 62 -36 23 -92 57 -125 75 -69 38 -90 51 -162 97 -28 18 -71 42 -95 53 -24 11 -79 43 -123 71 -44 29 -117 72 -163 95 -71 38 -92 44 -142 44 -53 0 -72 -7 -177 -61z m-50 -1009 c49 -22 96 -74 123 -139 20 -47 17 -128 -5 -177 -57 -126 -174 -179 -318 -143 l-45 12 -149 -149 -149 -149 10 -35 c13 -44 13 -145 0 -189 -5 -19 -6 -39 -2 -45 4 -6 73 -75 153 -154 l145 -142 48 16 c87 30 217 -7 265 -75 85 -119 78 -246 -19 -350 -78 -82 -252 -84 -342 -3 -82 74 -109 189 -67 281 l20 44 -103 106 c-57 58 -126 128 -155 154 l-51 49 -28 -19 c-41 -26 -155 -25 -209 4 -82 43 -133 117 -142 208 -15 144 104 275 250 275 34 0 74 -7 93 -16 34 -16 34 -16 71 17 57 49 263 261 263 269 0 4 -7 24 -15 43 -18 44 -20 126 -3 164 37 85 92 136 178 164 39 13 131 3 183 -21z m561 -30 c9 0 16 -2 16 -4 0 -2 3 -13 6 -23 3 -10 2 -14 -3 -8 -8 10 -52 31 -118 56 l-30 11 28 13 c26 11 31 9 57 -17 16 -15 36 -28 44 -28z m136 5 c19 -13 69 -71 53 -62 -6 4 -13 1 -16 -5 -2 -8 -18 0 -43 24 -21 20 -52 48 -69 62 l-30 26 45 -17 c25 -10 52 -23 60 -28z m-175 -95 c207 -98 228 -110 242 -137 11 -21 11 -33 2 -61 l-11 -34 151 -149 150 -148 42 14 c97 35 199 11 268 -63 106 -113 105 -249 -2 -352 -105 -101 -236 -106 -341 -14 -84 75 -112 168 -78 267 l19 57 -148 151 -147 150 -37 -15 c-47 -20 -130 -20 -184 -1 l-42 14 -102 -102 c-56 -56 -123 -125 -149 -153 l-47 -50 14 -40 c54 -152 -52 -322 -213 -341 -66 -7 -122 11 -182 58 -85 67 -118 168 -90 271 14 48 89 131 143 157 53 26 140 28 196 5 l40 -16 152 151 152 150 -17 40 c-33 71 -18 176 36 254 l20 27 26 -19 c15 -10 77 -42 137 -71z m132 -530 c115 -66 157 -177 117 -310 l-16 -53 149 -149 149 -149 67 18 c64 17 70 17 135 0 156 -41 229 -198 162 -349 -51 -115 -179 -166 -319 -128 l-44 12 -149 -149 c-118 -117 -148 -152 -143 -168 26 -91 28 -123 12 -190 -14 -55 -24 -75 -55 -103 -81 -74 -173 -98 -263 -67 -213 73 -228 376 -24 471 59 28 150 32 195 9 l29 -15 155 156 156 155 -16 32 c-22 41 -22 143 0 186 17 32 17 32 -17 69 -51 55 -186 191 -234 235 l-42 38 -46 -15 c-25 -9 -62 -16 -83 -16 -44 0 -148 47 -179 81 -66 72 -82 196 -38 285 48 97 121 143 225 144 54 0 74 -5 117 -30z m-1300 -664 c35 -18 63 -42 85 -74 31 -45 33 -52 33 -137 0 -49 -4 -103 -9 -118 -8 -27 -1 -36 143 -177 l152 -149 34 15 c41 17 129 18 175 3 l32 -12 158 158 159 158 -15 28 c-8 16 -14 55 -14 87 0 47 7 72 33 123 29 58 38 67 92 94 81 40 167 41 240 3 68 -36 100 -73 119 -140 20 -70 20 -100 0 -169 -38 -128 -190 -195 -333 -145 l-42 14 -149 -147 -150 -146 20 -53 c40 -106 22 -191 -60 -273 -48 -48 -65 -59 -114 -70 -89 -20 -154 -3 -225 59 -86 75 -112 170 -75 277 l15 46 -32 37 c-43 49 -256 262 -263 262 -2 0 -34 -7 -70 -15 -60 -14 -72 -14 -132 1 -82 21 -114 48 -153 126 -47 93 -39 182 23 273 26 37 36 44 106 73 71 29 144 25 217 -12z"/>
 </g>
<g id="layer103" fill="#7a868b" stroke="none">
 <path d="M2373 4889 c-65 -33 -124 -66 -133 -73 -8 -8 -51 -33 -95 -56 -115 -61 -183 -100 -240 -137 -27 -18 -57 -33 -65 -33 -9 0 -25 -7 -35 -16 -31 -24 -143 -90 -220 -129 -38 -19 -106 -57 -150 -85 -44 -27 -87 -52 -95 -55 -29 -11 -115 -58 -130 -70 -8 -7 -71 -43 -140 -80 -69 -37 -132 -72 -140 -79 -8 -7 -40 -25 -70 -41 -30 -15 -62 -31 -70 -36 -155 -87 -211 -131 -241 -189 l-23 -45 -7 -580 c-4 -319 -7 -804 -8 -1078 -1 -547 -3 -532 60 -596 36 -36 160 -121 177 -121 6 0 33 -15 61 -33 127 -81 170 -107 178 -107 6 0 46 -24 91 -53 88 -57 115 -72 211 -124 36 -19 79 -45 95 -58 17 -13 62 -40 100 -60 38 -20 97 -55 130 -76 34 -22 80 -48 103 -59 23 -11 83 -47 135 -80 51 -33 121 -73 155 -90 34 -17 68 -36 75 -43 14 -14 69 -47 163 -98 33 -17 79 -45 103 -60 75 -50 104 -61 161 -61 51 -1 127 21 141 40 6 10 67 45 185 107 50 26 97 53 105 59 28 23 108 66 123 66 9 0 17 4 19 8 3 9 99 66 213 127 111 60 207 116 234 137 13 10 29 18 36 18 7 0 66 32 131 71 64 39 128 75 142 80 14 5 68 36 121 68 53 32 125 73 161 91 36 18 84 46 107 62 24 16 64 39 90 51 94 44 144 80 175 126 l32 46 7 280 c4 154 9 649 11 1100 l3 820 -25 50 c-26 52 -24 50 -245 181 -44 26 -123 73 -175 104 -52 31 -143 86 -202 121 -59 35 -129 75 -155 89 -27 14 -91 52 -143 84 -52 33 -113 69 -135 79 -22 11 -69 39 -105 62 -36 23 -92 57 -125 75 -69 38 -90 51 -162 97 -28 18 -71 42 -95 53 -24 11 -79 43 -123 71 -44 29 -117 72 -163 95 -71 38 -92 44 -142 44 -53 0 -72 -7 -177 -61z m-50 -1009 c49 -22 96 -74 123 -139 20 -47 17 -128 -5 -177 -57 -126 -174 -179 -318 -143 l-45 12 -149 -149 -149 -149 10 -35 c13 -44 13 -145 0 -189 -5 -19 -6 -39 -2 -45 4 -6 73 -75 153 -154 l145 -142 48 16 c87 30 217 -7 265 -75 85 -119 78 -246 -19 -350 -78 -82 -252 -84 -342 -3 -82 74 -109 189 -67 281 l20 44 -103 106 c-57 58 -126 128 -155 154 l-51 49 -28 -19 c-41 -26 -155 -25 -209 4 -82 43 -133 117 -142 208 -15 144 104 275 250 275 34 0 74 -7 93 -16 34 -16 34 -16 71 17 57 49 263 261 263 269 0 4 -7 24 -15 43 -18 44 -20 126 -3 164 37 85 92 136 178 164 39 13 131 3 183 -21z m633 8 c31 -13 71 -38 89 -55 37 -38 59 -102 50 -143 -4 -16 -2 -37 3 -46 7 -12 5 -34 -5 -67 l-15 -50 151 -148 150 -148 42 14 c97 35 199 11 268 -63 106 -113 105 -249 -2 -352 -105 -101 -236 -106 -341 -14 -84 75 -112 168 -78 267 l19 57 -148 151 -147 150 -37 -15 c-47 -20 -130 -20 -184 -1 l-42 14 -102 -102 c-56 -56 -123 -125 -149 -153 l-47 -50 14 -40 c54 -152 -52 -322 -213 -341 -66 -7 -122 11 -182 58 -85 67 -118 168 -90 271 14 48 89 131 143 157 53 26 140 28 196 5 l40 -16 152 151 152 150 -17 39 c-37 81 -12 207 54 271 40 39 116 69 177 70 24 1 68 -9 99 -21z m21 -658 c115 -66 157 -177 117 -310 l-16 -53 149 -149 149 -149 67 18 c64 17 70 17 135 0 156 -41 229 -198 162 -349 -51 -115 -179 -166 -319 -128 l-44 12 -149 -149 c-118 -117 -148 -152 -143 -168 26 -91 28 -123 12 -190 -14 -55 -24 -75 -55 -103 -81 -74 -173 -98 -263 -67 -213 73 -228 376 -24 471 59 28 150 32 195 9 l29 -15 155 156 156 155 -16 32 c-22 41 -22 143 0 186 17 32 17 32 -17 69 -51 55 -186 191 -234 235 l-42 38 -46 -15 c-25 -9 -62 -16 -83 -16 -44 0 -148 47 -179 81 -66 72 -82 196 -38 285 48 97 121 143 225 144 54 0 74 -5 117 -30z m-1300 -664 c35 -18 63 -42 85 -74 31 -45 33 -52 33 -137 0 -49 -4 -103 -9 -118 -8 -27 -1 -36 143 -177 l152 -149 34 15 c41 17 129 18 175 3 l32 -12 158 158 159 158 -15 28 c-8 16 -14 55 -14 87 0 47 7 72 33 123 29 58 38 67 92 94 81 40 167 41 240 3 68 -36 100 -73 119 -140 20 -70 20 -100 0 -169 -38 -128 -190 -195 -333 -145 l-42 14 -149 -147 -150 -146 20 -53 c40 -106 22 -191 -60 -273 -48 -48 -65 -59 -114 -70 -89 -20 -154 -3 -225 59 -86 75 -112 170 -75 277 l15 46 -32 37 c-43 49 -256 262 -263 262 -2 0 -34 -7 -70 -15 -60 -14 -72 -14 -132 1 -82 21 -114 48 -153 126 -47 93 -39 182 23 273 26 37 36 44 106 73 71 29 144 25 217 -12z"/>
 </g>
<g id="layer104" fill="#fefefe" stroke="none">
 <path d="M2373 4889 c-65 -33 -124 -66 -133 -73 -8 -8 -51 -33 -95 -56 -115 -61 -183 -100 -240 -137 -27 -18 -57 -33 -65 -33 -9 0 -25 -7 -35 -16 -31 -24 -143 -90 -220 -129 -38 -19 -106 -57 -150 -85 -44 -27 -87 -52 -95 -55 -29 -11 -115 -58 -130 -70 -8 -7 -71 -43 -140 -80 -69 -37 -132 -72 -140 -79 -8 -7 -40 -25 -70 -41 -30 -15 -62 -31 -70 -36 -155 -87 -211 -131 -241 -189 l-23 -45 -7 -580 c-4 -319 -7 -804 -8 -1078 -1 -547 -3 -532 60 -596 36 -36 160 -121 177 -121 6 0 33 -15 61 -33 127 -81 170 -107 178 -107 6 0 46 -24 91 -53 88 -57 115 -72 211 -124 36 -19 79 -45 95 -58 17 -13 62 -40 100 -60 38 -20 97 -55 130 -76 34 -22 80 -48 103 -59 23 -11 83 -47 135 -80 51 -33 121 -73 155 -90 34 -17 68 -36 75 -43 14 -14 69 -47 163 -98 33 -17 79 -45 103 -60 75 -50 104 -61 161 -61 51 -1 127 21 141 40 6 10 67 45 185 107 50 26 97 53 105 59 28 23 108 66 123 66 9 0 17 4 19 8 3 9 99 66 213 127 111 60 207 116 234 137 13 10 29 18 36 18 7 0 66 32 131 71 64 39 128 75 142 80 14 5 68 36 121 68 53 32 125 73 161 91 36 18 84 46 107 62 24 16 64 39 90 51 94 44 144 80 175 126 l32 46 7 280 c4 154 9 649 11 1100 l3 820 -25 50 c-26 52 -24 50 -245 181 -44 26 -123 73 -175 104 -52 31 -143 86 -202 121 -59 35 -129 75 -155 89 -27 14 -91 52 -143 84 -52 33 -113 69 -135 79 -22 11 -69 39 -105 62 -36 23 -92 57 -125 75 -69 38 -90 51 -162 97 -28 18 -71 42 -95 53 -24 11 -79 43 -123 71 -44 29 -117 72 -163 95 -71 38 -92 44 -142 44 -53 0 -72 -7 -177 -61z m-50 -1009 c49 -22 96 -74 123 -139 20 -47 17 -128 -5 -177 -57 -126 -174 -179 -318 -143 l-45 12 -149 -149 -149 -149 10 -35 c13 -44 13 -145 0 -189 -5 -19 -6 -39 -2 -45 4 -6 73 -75 153 -154 l145 -142 48 16 c87 30 217 -7 265 -75 85 -119 78 -246 -19 -350 -78 -82 -252 -84 -342 -3 -82 74 -109 189 -67 281 l20 44 -103 106 c-57 58 -126 128 -155 154 l-51 49 -28 -19 c-41 -26 -155 -25 -209 4 -82 43 -133 117 -142 208 -15 144 104 275 250 275 34 0 74 -7 93 -16 34 -16 34 -16 71 17 57 49 263 261 263 269 0 4 -7 24 -15 43 -18 44 -20 126 -3 164 37 85 92 136 178 164 39 13 131 3 183 -21z m633 8 c76 -31 118 -74 138 -146 20 -73 20 -106 0 -166 l-17 -48 151 -149 151 -148 42 14 c97 35 199 11 268 -63 106 -113 105 -249 -2 -352 -105 -101 -236 -106 -341 -14 -84 75 -112 168 -78 267 l19 57 -148 151 -147 150 -37 -15 c-47 -20 -130 -20 -184 -1 l-42 14 -102 -102 c-56 -56 -123 -125 -149 -153 l-47 -50 14 -40 c54 -152 -52 -322 -213 -341 -66 -7 -122 11 -182 58 -85 67 -118 168 -90 271 14 48 89 131 143 157 53 26 140 28 196 5 l40 -16 152 151 152 150 -17 39 c-37 81 -12 207 54 271 40 39 116 69 177 70 24 1 68 -9 99 -21z m21 -658 c115 -66 157 -177 117 -310 l-16 -53 149 -149 149 -149 67 18 c64 17 70 17 135 0 156 -41 229 -198 162 -349 -51 -115 -179 -166 -319 -128 l-44 12 -149 -149 c-118 -117 -148 -152 -143 -168 26 -91 28 -123 12 -190 -14 -55 -24 -75 -55 -103 -81 -74 -173 -98 -263 -67 -213 73 -228 376 -24 471 59 28 150 32 195 9 l29 -15 155 156 156 155 -16 32 c-22 41 -22 143 0 186 17 32 17 32 -17 69 -51 55 -186 191 -234 235 l-42 38 -46 -15 c-25 -9 -62 -16 -83 -16 -44 0 -148 47 -179 81 -66 72 -82 196 -38 285 48 97 121 143 225 144 54 0 74 -5 117 -30z m-1300 -664 c35 -18 63 -42 85 -74 31 -45 33 -52 33 -137 0 -49 -4 -103 -9 -118 -8 -27 -1 -36 143 -177 l152 -149 34 15 c41 17 129 18 175 3 l32 -12 158 158 159 158 -15 28 c-8 16 -14 55 -14 87 0 47 7 72 33 123 29 58 38 67 92 94 81 40 167 41 240 3 68 -36 100 -73 119 -140 20 -70 20 -100 0 -169 -38 -128 -190 -195 -333 -145 l-42 14 -149 -147 -150 -146 20 -53 c40 -106 22 -191 -60 -273 -48 -48 -65 -59 -114 -70 -89 -20 -154 -3 -225 59 -86 75 -112 170 -75 277 l15 46 -32 37 c-43 49 -256 262 -263 262 -2 0 -34 -7 -70 -15 -60 -14 -72 -14 -132 1 -82 21 -114 48 -153 126 -47 93 -39 182 23 273 26 37 36 44 106 73 71 29 144 25 217 -12z"/>
 </g>

</svg>