<?xml version="1.0" encoding="UTF-8" standalone="no"?><!-- Generator: Gravit.io --><svg xmlns="http://www.w3.org/2000/svg" xmlns:xlink="http://www.w3.org/1999/xlink" style="isolation:isolate" viewBox="528.169 215 592.831 287.825" width="592.831pt" height="287.825pt"><g><linearGradient id="_lgradient_0" x1="0.18553496298176053" y1="0.8360674327830768" x2="0.7531592798947279" y2="0.13312551753102286" gradientTransform="matrix(254.831,0,0,287.825,528.169,215)" gradientUnits="userSpaceOnUse"><stop offset="0%" stop-opacity="1" style="stop-color:rgb(86,133,243)"/><stop offset="97.91666666666666%" stop-opacity="1" style="stop-color:rgb(26,89,218)"/></linearGradient><path d=" M 529.403 425.199 L 528.786 360.114 L 528.17 295.028 C 528.128 290.586 531.201 285.148 535.028 282.892 L 591.146 249.812 L 647.265 216.731 C 651.092 214.475 657.34 214.416 661.21 216.599 L 717.945 248.611 L 774.68 280.622 C 778.549 282.805 781.725 288.184 781.767 292.626 L 782.383 357.712 L 783 422.797 C 783.042 427.239 779.969 432.677 776.142 434.933 L 720.023 468.013 L 663.904 501.094 C 660.077 503.35 653.829 503.409 649.96 501.226 L 593.225 469.214 L 536.489 437.203 C 532.62 435.02 529.445 429.641 529.403 425.199 Z  M 725.141 352.269 C 722.783 353.638 720.044 354.422 717.124 354.422 C 714.158 354.422 711.38 353.614 708.998 352.205 L 689.714 371.489 C 691.241 373.94 692.124 376.834 692.124 379.932 C 692.124 388.763 684.954 395.932 676.124 395.932 C 667.293 395.932 660.124 388.763 660.124 379.932 L 660.124 379.932 L 660.124 379.932 L 660.124 379.932 L 660.124 379.932 L 660.124 379.932 L 660.124 379.932 L 660.124 379.932 L 660.124 379.932 L 660.124 379.932 L 660.124 379.932 L 660.124 379.932 C 660.124 371.102 667.293 363.932 676.124 363.932 C 678.956 363.932 681.617 364.67 683.926 365.963 L 683.926 365.963 L 683.926 365.963 L 683.926 365.963 L 683.926 365.963 L 703.341 346.549 C 701.932 344.166 701.124 341.388 701.124 338.422 L 701.124 338.422 L 701.124 338.422 L 701.124 338.422 L 701.124 338.422 C 701.124 335.502 701.908 332.763 703.277 330.405 L 683.815 310.943 C 681.533 312.198 678.911 312.913 676.124 312.913 C 667.293 312.913 660.124 305.743 660.124 296.913 L 660.124 296.913 L 660.124 296.913 L 660.124 296.913 L 660.124 296.913 L 660.124 296.913 L 660.124 296.913 L 660.124 296.913 L 660.124 296.913 L 660.124 296.913 L 660.124 296.913 L 660.124 296.913 L 660.124 296.913 L 660.124 296.913 L 660.124 296.913 L 660.124 296.913 L 660.124 296.913 L 660.124 296.913 L 660.124 296.913 C 660.124 288.082 667.293 280.913 676.124 280.913 C 684.954 280.913 692.124 288.082 692.124 296.913 C 692.124 300.055 691.216 302.988 689.648 305.462 L 708.89 324.704 C 711.296 323.256 714.113 322.422 717.124 322.422 C 720.089 322.422 722.868 323.231 725.25 324.64 L 725.58 324.31 L 727.621 326.351 C 728.181 326.839 728.707 327.365 729.195 327.925 L 731.236 329.967 L 730.907 330.296 C 732.315 332.679 733.124 335.457 733.124 338.422 C 733.124 341.433 732.291 344.25 730.842 346.656 L 731.064 346.878 L 729.924 348.018 C 729.013 349.232 727.933 350.312 726.719 351.223 L 725.408 352.535 L 725.141 352.269 Z  M 642.299 311.215 C 640.14 312.301 637.703 312.913 635.124 312.913 C 632.271 312.913 629.592 312.164 627.271 310.854 L 627.271 310.854 L 627.271 310.854 L 627.271 310.854 L 627.271 310.854 L 627.271 310.854 L 627.271 310.854 L 607.829 330.296 C 609.237 332.679 610.046 335.457 610.046 338.422 C 610.046 347.253 602.876 354.422 594.046 354.422 C 591.08 354.422 588.302 353.614 585.92 352.205 L 585.59 352.535 L 583.549 350.494 C 582.988 350.006 582.462 349.48 581.974 348.92 L 579.933 346.878 L 580.263 346.549 C 578.854 344.166 578.046 341.388 578.046 338.422 L 578.046 338.422 L 578.046 338.422 L 578.046 338.422 C 578.046 329.592 585.215 322.422 594.046 322.422 C 597.011 322.422 599.789 323.231 602.172 324.64 L 621.504 305.308 C 619.995 302.867 619.124 299.99 619.124 296.913 L 619.124 296.913 L 619.124 296.913 L 619.124 296.913 L 619.124 296.913 L 619.124 296.913 L 619.124 296.913 L 619.124 296.913 L 619.124 296.913 L 619.124 296.913 L 619.124 296.913 L 619.124 296.913 C 619.124 288.082 626.293 280.913 635.124 280.913 C 643.954 280.913 651.124 288.082 651.124 296.913 C 651.124 300.259 650.094 303.367 648.334 305.937 L 667.405 325.008 C 669.914 323.373 672.909 322.422 676.124 322.422 C 684.954 322.422 692.124 329.592 692.124 338.422 C 692.124 347.253 684.954 354.422 676.124 354.422 C 667.293 354.422 660.124 347.253 660.124 338.422 L 660.124 338.422 L 660.124 338.422 L 660.124 338.422 L 660.124 338.422 L 660.124 338.422 L 660.124 338.422 L 660.124 338.422 L 660.124 338.422 L 660.124 338.422 L 660.124 338.422 L 660.124 338.422 L 660.124 338.422 C 660.124 335.709 660.801 333.152 661.995 330.911 L 642.299 311.215 L 642.299 311.215 Z  M 667.998 407.13 C 670.38 405.721 673.158 404.913 676.124 404.913 C 679.089 404.913 681.868 405.721 684.25 407.13 L 684.25 407.13 L 684.25 407.13 L 684.25 407.13 L 703.333 388.046 C 701.929 385.667 701.124 382.893 701.124 379.932 L 701.124 379.932 L 701.124 379.932 L 701.124 379.932 L 701.124 379.932 C 701.124 371.102 708.293 363.932 717.124 363.932 C 725.954 363.932 733.124 371.102 733.124 379.932 C 733.124 388.763 725.954 395.932 717.124 395.932 C 714.153 395.932 711.37 395.121 708.985 393.708 L 689.907 412.786 C 691.315 415.169 692.124 417.947 692.124 420.913 C 692.124 423.878 691.315 426.656 689.907 429.039 L 690.124 429.256 L 689.075 430.304 C 688.083 431.669 686.881 432.872 685.515 433.864 L 684.467 434.913 L 684.25 434.695 C 681.868 436.104 679.089 436.913 676.124 436.913 C 673.158 436.913 670.38 436.104 667.998 434.695 L 667.668 435.025 L 665.627 432.984 C 665.066 432.496 664.54 431.97 664.052 431.41 L 662.011 429.368 L 662.341 429.039 C 660.932 426.656 660.124 423.878 660.124 420.913 L 660.124 420.913 L 660.124 420.913 L 660.124 420.913 L 660.124 420.913 L 660.124 420.913 L 660.124 420.913 L 660.124 420.913 L 660.124 420.913 L 660.124 420.913 L 660.124 420.913 L 660.124 420.913 L 660.124 420.913 C 660.124 417.947 660.932 415.169 662.341 412.786 L 643.262 393.708 C 640.877 395.121 638.095 395.932 635.124 395.932 C 626.293 395.932 619.124 388.763 619.124 379.932 L 619.124 379.932 L 619.124 379.932 L 619.124 379.932 L 619.124 379.932 L 619.124 379.932 L 619.124 379.932 L 619.124 379.932 L 619.124 379.932 L 619.124 379.932 L 619.124 379.932 L 619.124 379.932 L 619.124 379.932 C 619.124 371.102 626.293 363.932 635.124 363.932 C 643.954 363.932 651.124 371.102 651.124 379.932 C 651.124 382.893 650.318 385.667 648.914 388.046 L 667.998 407.13 L 667.998 407.13 L 667.998 407.13 Z  M 602.365 393.599 C 599.94 395.079 597.092 395.932 594.046 395.932 C 585.215 395.932 578.046 388.763 578.046 379.932 L 578.046 379.932 L 578.046 379.932 L 578.046 379.932 L 578.046 379.932 L 578.046 379.932 C 578.046 371.102 585.215 363.932 594.046 363.932 C 597.092 363.932 599.94 364.786 602.365 366.266 L 621.623 347.008 C 620.041 344.527 619.124 341.581 619.124 338.422 L 619.124 338.422 L 619.124 338.422 L 619.124 338.422 L 619.124 338.422 L 619.124 338.422 L 619.124 338.422 C 619.124 329.592 626.293 322.422 635.124 322.422 C 643.954 322.422 651.124 329.592 651.124 338.422 C 651.124 347.253 643.954 354.422 635.124 354.422 C 632.352 354.422 629.744 353.716 627.47 352.474 L 627.47 352.474 L 627.47 352.474 L 627.47 352.474 L 607.942 372.002 C 609.281 374.34 610.046 377.048 610.046 379.932 C 610.046 382.817 609.281 385.525 607.942 387.863 L 627.131 407.052 C 629.483 405.691 632.213 404.913 635.124 404.913 C 643.954 404.913 651.124 412.082 651.124 420.913 C 651.124 429.743 643.954 436.913 635.124 436.913 C 626.293 436.913 619.124 429.743 619.124 420.913 L 619.124 420.913 L 619.124 420.913 L 619.124 420.913 L 619.124 420.913 L 619.124 420.913 L 619.124 420.913 L 619.124 420.913 L 619.124 420.913 L 619.124 420.913 L 619.124 420.913 L 619.124 420.913 L 619.124 420.913 L 619.124 420.913 C 619.124 417.892 619.963 415.065 621.42 412.654 L 602.365 393.599 L 602.365 393.599 L 602.365 393.599 L 602.365 393.599 Z " fill-rule="evenodd" fill="url(#_lgradient_0)"/><path d=" M 840.158 329.316 L 822.176 329.316 L 822.176 329.316 Q 819.855 329.316 819.855 327.154 L 819.855 327.154 L 819.855 327.154 Q 819.855 325.994 821.49 324.992 L 821.49 324.992 L 821.49 324.992 Q 822.229 324.465 823.204 323.858 L 823.204 323.858 L 823.204 323.858 Q 824.18 323.252 824.707 322.355 L 824.707 322.355 L 824.707 322.355 Q 825.129 321.512 825.129 320.563 L 825.129 320.563 L 825.129 261.975 L 825.129 261.975 Q 825.129 259.232 822.492 258.31 L 822.492 258.31 L 822.492 258.31 Q 819.855 257.387 819.855 255.33 L 819.855 255.33 L 819.855 255.33 Q 819.855 253.168 822.281 253.168 L 822.281 253.168 L 872.537 253.168 L 872.537 267.775 L 872.537 267.775 Q 872.537 269.938 870.111 269.938 L 870.111 269.938 L 870.111 269.938 Q 868.793 269.938 867 267.301 L 867 267.301 L 867 267.301 Q 864.416 263.715 862.729 261.948 L 862.729 261.948 L 862.729 261.948 Q 861.041 260.182 858.51 260.182 L 858.51 260.182 L 837.311 260.182 L 837.311 286.707 L 848.068 286.707 L 848.068 286.707 Q 849.598 286.707 850.863 285.23 L 850.863 285.23 L 850.863 285.23 Q 851.76 284.176 852.472 282.726 L 852.472 282.726 L 852.472 282.726 Q 853.184 281.275 854.924 281.275 L 854.924 281.275 L 854.924 281.275 Q 857.297 281.275 857.297 283.438 L 857.297 283.438 L 857.297 296.832 L 857.297 296.832 Q 857.297 298.994 854.924 298.994 L 854.924 298.994 L 854.924 298.994 Q 853.078 298.994 852.287 297.359 L 852.287 297.359 L 852.287 297.359 Q 851.496 295.725 850.494 294.617 L 850.494 294.617 L 850.494 294.617 Q 849.439 293.563 848.068 293.563 L 848.068 293.563 L 837.311 293.563 L 837.311 320.563 L 837.311 320.563 Q 837.311 321.828 837.838 322.672 L 837.838 322.672 L 837.838 322.672 Q 838.365 323.41 839.183 323.938 L 839.183 323.938 L 839.183 323.938 Q 840 324.465 840.791 324.939 L 840.791 324.939 L 840.791 324.939 Q 842.531 325.994 842.531 327.154 L 842.531 327.154 L 842.531 327.154 Q 842.531 327.576 842.426 327.998 L 842.426 327.998 L 842.426 327.998 Q 841.635 329.316 840.158 329.316 L 840.158 329.316 L 840.158 329.316 Z  M 897.322 261.975 L 897.322 261.975 L 897.322 320.51 L 897.322 320.51 Q 897.322 323.305 899.959 324.228 L 899.959 324.228 L 899.959 324.228 Q 902.596 325.15 902.596 327.154 L 902.596 327.154 L 902.596 327.154 Q 902.596 329.316 900.17 329.316 L 900.17 329.316 L 882.293 329.316 L 882.293 329.316 Q 879.92 329.316 879.92 327.154 L 879.92 327.154 L 879.92 327.154 Q 879.92 325.15 882.557 324.228 L 882.557 324.228 L 882.557 324.228 Q 885.193 323.305 885.193 320.563 L 885.193 320.563 L 885.193 261.975 L 885.193 261.975 Q 885.193 259.232 882.557 258.31 L 882.557 258.31 L 882.557 258.31 Q 879.92 257.387 879.92 255.33 L 879.92 255.33 L 879.92 255.33 Q 879.92 253.168 882.346 253.168 L 882.346 253.168 L 900.17 253.168 L 900.17 253.168 Q 902.596 253.168 902.596 255.33 L 902.596 255.33 L 902.596 255.33 Q 902.596 257.387 899.959 258.31 L 899.959 258.31 L 899.959 258.31 Q 897.322 259.232 897.322 261.975 Z  M 954.275 293.932 L 977.109 323.832 L 977.109 323.832 Q 978.111 324.676 980.063 324.834 L 980.063 324.834 L 980.063 324.834 Q 982.699 325.15 982.699 326.996 L 982.699 326.996 L 982.699 327.207 L 982.699 327.207 Q 982.383 329.316 980.273 329.316 L 980.273 329.316 L 966.193 329.316 L 966.193 329.316 Q 964.98 329.316 961.658 324.939 L 961.658 324.939 L 961.658 324.939 Q 958.336 320.563 954.223 314.867 L 954.223 314.867 L 954.223 314.867 Q 950.109 309.172 945.812 303.213 L 945.812 303.213 L 945.812 303.213 Q 941.514 297.254 938.982 294.143 L 938.982 294.143 L 932.602 294.143 L 932.602 320.563 L 932.602 320.563 Q 932.602 323.305 935.238 324.228 L 935.238 324.228 L 935.238 324.228 Q 937.875 325.15 937.875 327.154 L 937.875 327.154 L 937.875 327.154 Q 937.875 329.316 935.502 329.316 L 935.502 329.316 L 917.625 329.316 L 917.625 329.316 Q 915.199 329.316 915.199 327.154 L 915.199 327.154 L 915.199 327.154 Q 915.199 325.15 917.836 324.228 L 917.836 324.228 L 917.836 324.228 Q 920.473 323.305 920.473 320.563 L 920.473 320.563 L 920.473 261.975 L 920.473 261.975 Q 920.473 259.285 917.836 258.336 L 917.836 258.336 L 917.836 258.336 Q 915.199 257.387 915.199 255.33 L 915.199 255.33 L 915.199 255.33 Q 915.199 253.168 917.625 253.168 L 917.625 253.168 L 948.738 253.168 L 948.738 253.168 Q 954.434 253.168 960.683 255.198 L 960.683 255.198 L 960.683 255.198 Q 966.932 257.229 970.412 263.188 L 970.412 263.188 L 970.412 263.188 Q 973.049 267.881 973.049 274.367 L 973.049 274.367 L 973.049 274.367 Q 972.943 280.59 969.463 285.6 L 969.463 285.6 L 969.463 285.6 Q 966.615 289.607 961.632 291.717 L 961.632 291.717 L 961.632 291.717 Q 956.648 293.826 954.275 293.932 L 954.275 293.932 L 954.275 293.932 Z  M 944.572 259.654 L 932.602 259.654 L 932.602 288.342 L 943.518 288.342 L 943.518 288.342 Q 946.945 288.342 950.399 287.366 L 950.399 287.366 L 950.399 287.366 Q 953.854 286.391 956.332 283.912 L 956.332 283.912 L 956.332 283.912 Q 960.234 280.168 960.234 273.84 L 960.234 273.84 L 960.234 273.84 Q 960.234 267.775 956.174 263.768 L 956.174 263.768 L 956.174 263.768 Q 951.902 259.654 944.572 259.654 L 944.572 259.654 L 944.572 259.654 Z  M 1009.699 324.307 L 1009.699 324.307 L 1009.699 324.307 Q 1013.654 324.043 1017.293 322.224 L 1017.293 322.224 L 1017.293 322.224 Q 1020.932 320.404 1023.146 316.871 L 1023.146 316.871 L 1023.146 316.871 Q 1025.467 313.127 1025.467 307.801 L 1025.467 307.801 L 1025.467 307.221 L 1025.467 307.221 Q 1025.309 301.736 1021.354 298.889 L 1021.354 298.889 L 1021.354 298.889 Q 1019.561 297.518 1016.977 296.779 L 1016.977 296.779 L 1016.977 296.779 Q 1011.492 295.303 1005.612 294.644 L 1005.612 294.644 L 1005.612 294.644 Q 999.732 293.984 994.248 291.348 L 994.248 291.348 L 994.248 291.348 Q 989.186 288.975 986.733 284.413 L 986.733 284.413 L 986.733 284.413 Q 984.281 279.852 984.281 274.578 L 984.281 274.578 L 984.281 274.578 Q 984.281 264.295 991.506 257.703 L 991.506 257.703 L 991.506 257.703 Q 998.994 250.795 1010.332 250.795 L 1010.332 250.795 L 1011.967 250.795 L 1011.967 250.795 Q 1024.148 251.322 1033.271 257.229 L 1033.271 257.229 L 1031.953 268.883 L 1031.953 268.883 Q 1031.742 270.781 1029.633 270.781 L 1029.633 270.781 L 1029.369 270.781 L 1029.369 270.781 Q 1027.787 270.676 1026.838 268.619 L 1026.838 268.619 L 1026.838 268.619 Q 1024.729 264.084 1020.694 260.973 L 1020.694 260.973 L 1020.694 260.973 Q 1016.66 257.861 1012.125 257.65 L 1012.125 257.65 L 1011.334 257.65 L 1011.334 257.65 Q 1006.799 257.65 1003.371 259.232 L 1003.371 259.232 L 1003.371 259.232 Q 1001.104 260.393 999.785 261.764 L 999.785 261.764 L 999.785 261.764 Q 998.52 263.135 997.518 265.139 L 997.518 265.139 L 997.518 265.139 Q 996.727 266.773 996.305 268.988 L 996.305 268.988 L 996.305 268.988 Q 995.936 270.623 995.936 272.047 L 995.936 272.047 L 995.936 272.047 Q 995.936 273.945 996.516 275.58 L 996.516 275.58 L 996.516 275.58 Q 997.518 278.797 999.943 280.484 L 999.943 280.484 L 999.943 280.484 Q 1001.736 281.855 1003.898 282.383 L 1003.898 282.383 L 1003.898 282.383 Q 1005.217 282.752 1007.063 283.068 L 1007.063 283.068 L 1007.063 283.068 Q 1008.908 283.385 1010.965 283.701 L 1010.965 283.701 L 1010.965 283.701 Q 1013.971 284.176 1017.372 284.703 L 1017.372 284.703 L 1017.372 284.703 Q 1020.773 285.23 1024.043 286.18 L 1024.043 286.18 L 1024.043 286.18 Q 1029.686 288.025 1032.48 291.031 L 1032.48 291.031 L 1032.48 291.031 Q 1034.484 293.352 1035.803 296.094 L 1035.803 296.094 L 1035.803 296.094 Q 1037.279 299.732 1037.279 304.057 L 1037.279 304.057 L 1037.279 304.057 Q 1037.279 315.764 1027.734 323.568 L 1027.734 323.568 L 1027.734 323.568 Q 1022.777 327.629 1016.766 329.58 L 1016.766 329.58 L 1016.766 329.58 Q 1011.914 331.109 1006.43 331.32 L 1006.43 331.32 L 1006.43 331.32 Q 1005.27 331.373 1004.109 331.373 L 1004.109 331.373 L 1004.109 331.373 Q 996.568 331.373 988.975 329.053 L 988.975 329.053 L 983.807 314.656 L 983.807 314.656 Q 983.648 314.234 983.648 313.813 L 983.648 313.813 L 983.648 313.813 Q 983.648 313.021 984.176 312.283 L 984.176 312.283 L 984.176 312.283 Q 984.967 311.018 986.654 311.018 L 986.654 311.018 L 986.654 311.018 Q 988.078 311.387 988.975 313.232 L 988.975 313.232 L 988.975 313.232 Q 992.191 320.246 996.938 322.514 L 996.938 322.514 L 996.938 322.514 Q 1000.84 324.412 1006.957 324.412 L 1006.957 324.412 L 1006.957 324.412 Q 1008.275 324.412 1009.699 324.307 Z  M 1104.938 258.02 L 1104.938 267.775 L 1104.938 267.775 Q 1104.938 269.938 1102.512 269.938 L 1102.512 269.938 L 1102.512 269.938 Q 1101.299 269.938 1099.348 267.301 L 1099.348 267.301 L 1099.348 267.301 Q 1096.711 263.715 1095.023 261.948 L 1095.023 261.948 L 1095.023 261.948 Q 1093.336 260.182 1090.805 260.182 L 1090.805 260.182 L 1078.887 260.182 L 1078.887 320.563 L 1078.887 320.563 Q 1078.887 323.305 1081.523 324.254 L 1081.523 324.254 L 1081.523 324.254 Q 1084.16 325.203 1084.16 327.207 L 1084.16 327.207 L 1084.16 327.207 Q 1084.16 329.316 1081.787 329.316 L 1081.787 329.316 L 1063.91 329.316 L 1063.91 329.316 Q 1061.484 329.316 1061.484 327.207 L 1061.484 327.207 L 1061.484 327.207 Q 1061.484 325.203 1064.121 324.254 L 1064.121 324.254 L 1064.121 324.254 Q 1066.758 323.305 1066.758 320.563 L 1066.758 320.563 L 1066.758 260.182 L 1054.629 260.182 L 1054.629 260.182 Q 1052.098 260.182 1050.357 261.948 L 1050.357 261.948 L 1050.357 261.948 Q 1048.617 263.715 1046.033 267.301 L 1046.033 267.301 L 1046.033 267.301 Q 1044.188 269.938 1042.922 269.938 L 1042.922 269.938 L 1042.922 269.938 Q 1040.496 269.938 1040.496 267.775 L 1040.496 267.775 L 1040.496 258.02 L 1040.496 258.02 Q 1040.496 254.645 1041.92 253.774 L 1041.92 253.774 L 1041.92 253.774 Q 1043.344 252.904 1047.826 252.904 L 1047.826 252.904 L 1097.607 252.904 L 1097.607 252.904 Q 1102.459 252.904 1103.698 253.722 L 1103.698 253.722 L 1103.698 253.722 Q 1104.938 254.539 1104.938 258.02 L 1104.938 258.02 L 1104.938 258.02 Z " fill="rgb(0,0,0)"/><path d=" M 860.133 439.532 L 860.133 439.532 L 860.133 439.532 Q 843.793 439.532 831.18 429.1 L 831.18 429.1 L 831.18 429.1 Q 818.566 418.669 818.566 400.254 L 818.566 400.254 L 818.566 400.254 Q 818.566 382.317 830.834 371.487 L 830.834 371.487 L 830.834 371.487 Q 843.102 360.656 860.133 360.656 L 860.133 360.656 L 860.133 360.656 Q 866.253 360.656 873.146 362.013 L 873.146 362.013 L 873.146 362.013 Q 880.038 363.37 886.265 367.362 L 886.265 367.362 L 884.988 378.539 L 884.988 378.539 Q 884.775 379.497 883.923 379.497 L 883.923 379.497 L 883.764 379.497 L 883.764 379.497 Q 883.125 379.443 882.38 378.006 L 882.38 378.006 L 882.38 378.006 Q 879.293 371.354 873.119 368.213 L 873.119 368.213 L 873.119 368.213 Q 867.371 365.393 860.878 365.393 L 860.878 365.393 L 859.76 365.393 L 859.76 365.393 Q 845.39 366.031 837.3 376.889 L 837.3 376.889 L 837.3 376.889 Q 830.009 386.629 830.009 398.444 L 830.009 398.444 L 830.009 398.444 Q 830.009 399.775 830.115 401.105 L 830.115 401.105 L 830.115 401.105 Q 830.86 413.346 838.737 423.405 L 838.737 423.405 L 838.737 423.405 Q 846.614 433.464 860.133 434.103 L 860.133 434.103 L 860.133 434.103 Q 861.41 434.156 862.581 434.156 L 862.581 434.156 L 862.581 434.156 Q 869.394 434.156 873.811 432.081 L 873.811 432.081 L 873.811 432.081 Q 878.92 429.632 882.38 422.234 L 882.38 422.234 L 882.38 422.234 Q 883.072 420.744 884.083 420.744 L 884.083 420.744 L 884.083 420.744 Q 884.296 420.744 884.509 420.797 L 884.509 420.797 L 884.509 420.797 Q 885.36 421.117 885.36 422.022 L 885.36 422.022 L 885.36 422.022 Q 885.36 422.447 885.147 422.98 L 885.147 422.98 L 880.517 435.913 L 880.517 435.913 Q 875.408 438.042 870.139 438.787 L 870.139 438.787 L 870.139 438.787 Q 864.87 439.532 860.133 439.532 Z  M 931.079 361.614 L 934.378 361.614 L 934.378 361.614 Q 937.04 367.894 940.951 376.995 L 940.951 376.995 L 940.951 376.995 Q 944.863 386.096 949.041 395.73 L 949.041 395.73 L 949.041 395.73 Q 953.219 405.363 957.131 414.464 L 957.131 414.464 L 957.131 414.464 Q 961.043 423.565 963.757 429.792 L 963.757 429.792 L 963.757 429.792 Q 964.556 431.761 966.897 433.358 L 966.897 433.358 L 966.897 433.358 Q 968.122 434.156 969.319 434.689 L 969.319 434.689 L 969.319 434.689 Q 970.517 435.221 971.262 435.7 L 971.262 435.7 L 971.262 435.7 Q 971.794 436.072 971.954 436.445 L 971.954 436.445 L 971.954 436.445 Q 972.06 436.658 972.06 436.871 L 972.06 436.871 L 972.06 436.871 Q 972.06 437.03 971.954 437.243 L 971.954 437.243 L 971.954 437.243 Q 971.794 437.563 971.315 437.563 L 971.315 437.563 L 953.326 437.563 L 953.326 437.563 Q 952.847 437.563 952.368 437.243 L 952.368 437.243 L 952.368 437.243 Q 951.835 436.871 951.729 436.445 L 951.729 436.445 L 951.729 436.445 Q 951.623 436.285 951.623 436.126 L 951.623 436.126 L 951.623 436.126 Q 951.623 435.647 952.261 435.114 L 952.261 435.114 L 952.261 435.114 Q 952.74 434.635 953.432 434.103 L 953.432 434.103 L 953.432 434.103 Q 954.124 433.571 954.443 432.666 L 954.443 432.666 L 954.443 432.666 Q 954.603 432.24 954.603 431.708 L 954.603 431.708 L 954.603 431.708 Q 954.603 430.803 954.177 429.739 L 954.177 429.739 L 946.3 411.537 L 915.271 411.537 L 915.271 411.537 Q 913.355 416.114 911.466 420.664 L 911.466 420.664 L 911.466 420.664 Q 909.577 425.215 907.661 429.739 L 907.661 429.739 L 907.661 429.739 Q 907.182 430.803 907.128 431.655 L 907.128 431.655 L 907.128 431.655 Q 907.075 432.027 907.075 432.4 L 907.075 432.4 L 907.075 432.4 Q 907.075 432.932 907.235 433.411 L 907.235 433.411 L 907.235 433.411 Q 907.395 434.103 907.767 434.556 L 907.767 434.556 L 907.767 434.556 Q 908.14 435.008 908.299 435.487 L 908.299 435.487 L 908.299 435.487 Q 908.353 435.913 908.353 436.072 L 908.353 436.072 L 908.353 436.072 Q 908.353 436.232 908.246 436.445 L 908.246 436.445 L 908.246 436.445 Q 907.874 437.563 907.075 437.563 L 907.075 437.563 L 893.344 437.563 L 893.344 437.563 Q 892.812 437.563 892.599 437.243 L 892.599 437.243 L 892.599 437.243 Q 892.599 437.19 892.492 436.977 L 892.492 436.977 L 892.492 436.977 Q 892.492 436.871 892.599 436.445 L 892.599 436.445 L 892.599 436.445 Q 892.918 435.753 894.408 435.061 L 894.408 435.061 L 894.408 435.061 Q 895.207 434.689 896.138 434.236 L 896.138 434.236 L 896.138 434.236 Q 897.069 433.784 898.027 433.145 L 898.027 433.145 L 898.027 433.145 Q 899.997 431.761 900.901 429.792 L 900.901 429.792 L 931.079 361.614 L 931.079 361.614 Z  M 917.028 407.226 L 944.438 407.226 L 930.546 374.813 L 930.546 374.813 Q 927.14 382.956 923.76 391.046 L 923.76 391.046 L 923.76 391.046 Q 920.381 399.136 917.028 407.226 L 917.028 407.226 L 917.028 407.226 Z  M 1003.036 434.635 L 1003.036 434.635 L 1003.036 434.635 Q 1007.347 434.369 1011.312 432.373 L 1011.312 432.373 L 1011.312 432.373 Q 1015.277 430.378 1017.672 426.546 L 1017.672 426.546 L 1017.672 426.546 Q 1020.173 422.554 1020.173 416.912 L 1020.173 416.912 L 1020.173 416.327 L 1020.173 416.327 Q 1020.014 410.313 1015.596 407.119 L 1015.596 407.119 L 1015.596 407.119 Q 1013.574 405.629 1010.7 404.777 L 1010.7 404.777 L 1010.7 404.777 Q 1005.058 403.234 999.177 402.595 L 999.177 402.595 L 999.177 402.595 Q 993.296 401.957 988.027 399.402 L 988.027 399.402 L 988.027 399.402 Q 983.29 397.167 980.948 392.829 L 980.948 392.829 L 980.948 392.829 Q 978.606 388.491 978.606 383.382 L 978.606 383.382 L 978.606 383.382 Q 978.606 373.376 985.579 367.043 L 985.579 367.043 L 985.579 367.043 Q 992.71 360.443 1003.568 360.443 L 1003.568 360.443 L 1005.165 360.443 L 1005.165 360.443 Q 1017.033 360.975 1025.336 366.351 L 1025.336 366.351 L 1024.059 377.527 L 1024.059 377.527 Q 1023.952 378.485 1023.047 378.485 L 1023.047 378.485 L 1022.834 378.485 L 1022.834 378.485 Q 1022.143 378.432 1021.504 376.995 L 1021.504 376.995 L 1021.504 376.995 Q 1019.215 372.205 1014.851 368.826 L 1014.851 368.826 L 1014.851 368.826 Q 1010.487 365.446 1005.431 365.233 L 1005.431 365.233 L 1004.579 365.233 L 1004.579 365.233 Q 999.683 365.233 995.851 366.989 L 995.851 366.989 L 995.851 366.989 Q 993.349 368.267 991.859 369.81 L 991.859 369.81 L 991.859 369.81 Q 990.475 371.3 989.411 373.483 L 989.411 373.483 L 989.411 373.483 Q 988.559 375.239 988.08 377.581 L 988.08 377.581 L 988.08 377.581 Q 987.708 379.284 987.708 380.827 L 987.708 380.827 L 987.708 380.827 Q 987.708 382.903 988.346 384.659 L 988.346 384.659 L 988.346 384.659 Q 989.464 388.225 992.178 390.141 L 992.178 390.141 L 992.178 390.141 Q 994.254 391.685 996.702 392.27 L 996.702 392.27 L 996.702 392.27 Q 998.033 392.643 999.949 392.989 L 999.949 392.989 L 999.949 392.989 Q 1001.865 393.335 1003.94 393.654 L 1003.94 393.654 L 1003.94 393.654 Q 1006.974 394.133 1010.354 394.639 L 1010.354 394.639 L 1010.354 394.639 Q 1013.733 395.144 1016.927 396.102 L 1016.927 396.102 L 1016.927 396.102 Q 1022.249 397.805 1024.857 400.626 L 1024.857 400.626 L 1024.857 400.626 Q 1026.773 402.808 1027.997 405.416 L 1027.997 405.416 L 1027.997 405.416 Q 1029.434 408.929 1029.434 413.133 L 1029.434 413.133 L 1029.434 413.133 Q 1029.434 424.523 1020.173 432.081 L 1020.173 432.081 L 1020.173 432.081 Q 1015.383 436.019 1009.582 437.882 L 1009.582 437.882 L 1009.582 437.882 Q 1004.898 439.372 999.576 439.585 L 999.576 439.585 L 999.576 439.585 Q 998.405 439.638 997.288 439.638 L 997.288 439.638 L 997.288 439.638 Q 989.89 439.638 983.13 437.563 L 983.13 437.563 L 978.074 423.512 L 978.074 423.512 Q 977.968 423.246 977.968 422.98 L 977.968 422.98 L 977.968 422.98 Q 977.968 422.447 978.34 421.915 L 978.34 421.915 L 978.34 421.915 Q 978.766 421.223 979.458 421.223 L 979.458 421.223 L 979.458 421.223 Q 980.097 421.383 980.789 422.767 L 980.789 422.767 L 980.789 422.767 Q 984.195 430.165 989.357 432.666 L 989.357 432.666 L 989.357 432.666 Q 993.615 434.742 1000.162 434.742 L 1000.162 434.742 L 1000.162 434.742 Q 1001.545 434.742 1003.036 434.635 Z  M 1054.981 401.531 L 1054.981 432.56 L 1077.707 432.56 L 1077.707 432.56 Q 1082.657 432.56 1086.09 428.754 L 1086.09 428.754 L 1086.09 428.754 Q 1089.522 424.949 1091.279 422.82 L 1091.279 422.82 L 1091.279 422.82 Q 1092.237 421.649 1092.769 421.649 L 1092.769 421.649 L 1092.769 421.649 Q 1093.887 421.649 1093.887 422.767 L 1093.887 422.767 L 1093.887 422.767 Q 1093.887 423.459 1093.78 423.884 L 1093.78 423.884 L 1089.895 437.563 L 1040.983 437.563 L 1040.983 437.563 Q 1040.025 437.563 1040.025 436.445 L 1040.025 436.445 L 1040.025 436.445 Q 1040.025 435.114 1042.687 434.183 L 1042.687 434.183 L 1042.687 434.183 Q 1045.348 433.252 1045.348 429.792 L 1045.348 429.792 L 1045.348 370.662 L 1045.348 370.662 Q 1045.348 367.202 1042.687 366.271 L 1042.687 366.271 L 1042.687 366.271 Q 1040.025 365.339 1040.025 363.956 L 1040.025 363.956 L 1040.025 363.956 Q 1040.025 362.838 1041.143 362.838 L 1041.143 362.838 L 1090.534 362.838 L 1090.534 376.516 L 1090.534 376.516 Q 1090.534 377.634 1089.416 377.634 L 1089.416 377.634 L 1089.416 377.634 Q 1088.884 377.634 1087.447 375.505 L 1087.447 375.505 L 1087.447 375.505 Q 1084.786 371.833 1082.843 369.81 L 1082.843 369.81 L 1082.843 369.81 Q 1080.9 367.788 1077.707 367.788 L 1077.707 367.788 L 1054.981 367.788 L 1054.981 396.688 L 1067.169 396.688 L 1067.169 396.688 Q 1070.575 396.688 1071.64 393.947 L 1071.64 393.947 L 1071.64 393.947 Q 1072.704 391.206 1074.088 391.206 L 1074.088 391.206 L 1074.088 391.206 Q 1075.152 391.206 1075.152 392.323 L 1075.152 392.323 L 1075.152 405.842 L 1075.152 405.842 Q 1075.152 406.96 1074.088 406.96 L 1074.088 406.96 L 1074.088 406.96 Q 1072.704 406.96 1071.48 404.245 L 1071.48 404.245 L 1071.48 404.245 Q 1070.256 401.531 1066.85 401.531 L 1066.85 401.531 L 1054.981 401.531 L 1054.981 401.531 Z " fill="rgb(0,0,0)"/><line x1="820" y1="452" x2="1110" y2="452" vector-effect="non-scaling-stroke" stroke-width="1" stroke="rgb(0,0,0)" stroke-linejoin="miter" stroke-linecap="square" stroke-miterlimit="3"/><path d=" M 1065.421 461.858 L 1065.421 463.997 L 1060.089 463.997 L 1060.089 483.558 L 1057.764 483.558 L 1057.764 463.997 L 1052.432 463.997 L 1052.432 461.858 L 1065.421 461.858 L 1065.421 461.858 Z  M 1065.809 475.808 L 1065.809 475.808 L 1065.809 475.808 Q 1065.809 471.623 1067.251 469.654 L 1067.251 469.654 L 1067.251 469.654 Q 1068.692 467.686 1071.358 467.686 L 1071.358 467.686 L 1071.358 467.686 Q 1074.21 467.686 1075.559 469.701 L 1075.559 469.701 L 1075.559 469.701 Q 1076.907 471.716 1076.907 475.808 L 1076.907 475.808 L 1076.907 475.808 Q 1076.907 480.024 1075.45 481.977 L 1075.45 481.977 L 1075.45 481.977 Q 1073.993 483.93 1071.358 483.93 L 1071.358 483.93 L 1071.358 483.93 Q 1068.506 483.93 1067.158 481.915 L 1067.158 481.915 L 1067.158 481.915 Q 1065.809 479.9 1065.809 475.808 Z  M 1068.134 475.808 L 1068.134 475.808 L 1068.134 475.808 Q 1068.134 477.172 1068.305 478.288 L 1068.305 478.288 L 1068.305 478.288 Q 1068.475 479.404 1068.863 480.21 L 1068.863 480.21 L 1068.863 480.21 Q 1069.25 481.016 1069.87 481.465 L 1069.87 481.465 L 1069.87 481.465 Q 1070.49 481.915 1071.358 481.915 L 1071.358 481.915 L 1071.358 481.915 Q 1072.97 481.915 1073.776 480.473 L 1073.776 480.473 L 1073.776 480.473 Q 1074.582 479.032 1074.582 475.808 L 1074.582 475.808 L 1074.582 475.808 Q 1074.582 474.475 1074.412 473.343 L 1074.412 473.343 L 1074.412 473.343 Q 1074.241 472.212 1073.854 471.406 L 1073.854 471.406 L 1073.854 471.406 Q 1073.466 470.6 1072.846 470.15 L 1072.846 470.15 L 1072.846 470.15 Q 1072.226 469.701 1071.358 469.701 L 1071.358 469.701 L 1071.358 469.701 Q 1069.777 469.701 1068.956 471.158 L 1068.956 471.158 L 1068.956 471.158 Q 1068.134 472.615 1068.134 475.808 Z  M 1081.201 475.808 L 1081.201 475.808 L 1081.201 475.808 Q 1081.201 471.623 1082.643 469.654 L 1082.643 469.654 L 1082.643 469.654 Q 1084.084 467.686 1086.75 467.686 L 1086.75 467.686 L 1086.75 467.686 Q 1089.602 467.686 1090.951 469.701 L 1090.951 469.701 L 1090.951 469.701 Q 1092.299 471.716 1092.299 475.808 L 1092.299 475.808 L 1092.299 475.808 Q 1092.299 480.024 1090.842 481.977 L 1090.842 481.977 L 1090.842 481.977 Q 1089.385 483.93 1086.75 483.93 L 1086.75 483.93 L 1086.75 483.93 Q 1083.898 483.93 1082.55 481.915 L 1082.55 481.915 L 1082.55 481.915 Q 1081.201 479.9 1081.201 475.808 Z  M 1083.526 475.808 L 1083.526 475.808 L 1083.526 475.808 Q 1083.526 477.172 1083.697 478.288 L 1083.697 478.288 L 1083.697 478.288 Q 1083.867 479.404 1084.255 480.21 L 1084.255 480.21 L 1084.255 480.21 Q 1084.642 481.016 1085.262 481.465 L 1085.262 481.465 L 1085.262 481.465 Q 1085.882 481.915 1086.75 481.915 L 1086.75 481.915 L 1086.75 481.915 Q 1088.362 481.915 1089.168 480.473 L 1089.168 480.473 L 1089.168 480.473 Q 1089.974 479.032 1089.974 475.808 L 1089.974 475.808 L 1089.974 475.808 Q 1089.974 474.475 1089.804 473.343 L 1089.804 473.343 L 1089.804 473.343 Q 1089.633 472.212 1089.246 471.406 L 1089.246 471.406 L 1089.246 471.406 Q 1088.858 470.6 1088.238 470.15 L 1088.238 470.15 L 1088.238 470.15 Q 1087.618 469.701 1086.75 469.701 L 1086.75 469.701 L 1086.75 469.701 Q 1085.169 469.701 1084.347 471.158 L 1084.347 471.158 L 1084.347 471.158 Q 1083.526 472.615 1083.526 475.808 Z  M 1099.662 461.858 L 1099.662 479.869 L 1099.662 479.869 Q 1099.662 480.954 1099.957 481.419 L 1099.957 481.419 L 1099.957 481.419 Q 1100.251 481.884 1100.778 481.884 L 1100.778 481.884 L 1100.778 481.884 Q 1101.429 481.884 1102.297 481.543 L 1102.297 481.543 L 1102.514 483.341 L 1102.514 483.341 Q 1102.111 483.589 1101.383 483.744 L 1101.383 483.744 L 1101.383 483.744 Q 1100.654 483.899 1100.065 483.899 L 1100.065 483.899 L 1100.065 483.899 Q 1098.887 483.899 1098.159 483.17 L 1098.159 483.17 L 1098.159 483.17 Q 1097.43 482.442 1097.43 480.613 L 1097.43 480.613 L 1097.43 461.858 L 1099.662 461.858 L 1099.662 461.858 Z  M 934.085 483.558 L 934.085 462.075 L 934.085 462.075 Q 935.108 461.827 936.333 461.718 L 936.333 461.718 L 936.333 461.718 Q 937.557 461.61 938.58 461.61 L 938.58 461.61 L 938.58 461.61 Q 939.789 461.61 940.874 461.904 L 940.874 461.904 L 940.874 461.904 Q 941.959 462.199 942.765 462.896 L 942.765 462.896 L 942.765 462.896 Q 943.571 463.594 944.052 464.725 L 944.052 464.725 L 944.052 464.725 Q 944.532 465.857 944.532 467.562 L 944.532 467.562 L 944.532 467.562 Q 944.532 470.135 943.463 471.685 L 943.463 471.685 L 943.463 471.685 Q 942.393 473.235 940.626 473.762 L 940.626 473.762 L 941.804 474.909 L 946.082 483.558 L 943.385 483.558 L 938.735 474.103 L 936.41 473.638 L 936.41 483.558 L 934.085 483.558 L 934.085 483.558 Z  M 936.41 463.935 L 936.41 472.088 L 938.27 472.088 L 938.27 472.088 Q 940.037 472.088 941.06 471.003 L 941.06 471.003 L 941.06 471.003 Q 942.083 469.918 942.083 467.686 L 942.083 467.686 L 942.083 467.686 Q 942.083 465.981 941.231 464.865 L 941.231 464.865 L 941.231 464.865 Q 940.378 463.749 938.704 463.749 L 938.704 463.749 L 938.704 463.749 Q 938.084 463.749 937.418 463.795 L 937.418 463.795 L 937.418 463.795 Q 936.751 463.842 936.41 463.935 L 936.41 463.935 L 936.41 463.935 Z  M 958.064 480.861 L 958.87 482.504 L 958.87 482.504 Q 958.126 483.186 956.979 483.558 L 956.979 483.558 L 956.979 483.558 Q 955.832 483.93 954.561 483.93 L 954.561 483.93 L 954.561 483.93 Q 953.104 483.93 952.035 483.356 L 952.035 483.356 L 952.035 483.356 Q 950.965 482.783 950.267 481.713 L 950.267 481.713 L 950.267 481.713 Q 949.57 480.644 949.245 479.156 L 949.245 479.156 L 949.245 479.156 Q 948.919 477.668 948.919 475.808 L 948.919 475.808 L 948.919 475.808 Q 948.919 471.84 950.376 469.763 L 950.376 469.763 L 950.376 469.763 Q 951.833 467.686 954.499 467.686 L 954.499 467.686 L 954.499 467.686 Q 955.367 467.686 956.219 467.903 L 956.219 467.903 L 956.219 467.903 Q 957.072 468.12 957.754 468.771 L 957.754 468.771 L 957.754 468.771 Q 958.436 469.422 958.855 470.6 L 958.855 470.6 L 958.855 470.6 Q 959.273 471.778 959.273 473.669 L 959.273 473.669 L 959.273 473.669 Q 959.273 474.196 959.227 474.8 L 959.227 474.8 L 959.227 474.8 Q 959.18 475.405 959.118 476.056 L 959.118 476.056 L 951.244 476.056 L 951.244 476.056 Q 951.244 477.389 951.461 478.474 L 951.461 478.474 L 951.461 478.474 Q 951.678 479.559 952.143 480.319 L 952.143 480.319 L 952.143 480.319 Q 952.608 481.078 953.337 481.496 L 953.337 481.496 L 953.337 481.496 Q 954.065 481.915 955.15 481.915 L 955.15 481.915 L 955.15 481.915 Q 955.987 481.915 956.809 481.605 L 956.809 481.605 L 956.809 481.605 Q 957.63 481.295 958.064 480.861 L 958.064 480.861 L 958.064 480.861 Z  M 951.275 474.196 L 957.134 474.196 L 957.134 474.196 Q 957.196 471.871 956.483 470.786 L 956.483 470.786 L 956.483 470.786 Q 955.77 469.701 954.53 469.701 L 954.53 469.701 L 954.53 469.701 Q 953.104 469.701 952.267 470.786 L 952.267 470.786 L 952.267 470.786 Q 951.43 471.871 951.275 474.196 L 951.275 474.196 L 951.275 474.196 Z  M 963.474 482.969 L 964.156 481.016 L 964.156 481.016 Q 964.776 481.388 965.629 481.651 L 965.629 481.651 L 965.629 481.651 Q 966.481 481.915 967.38 481.915 L 967.38 481.915 L 967.38 481.915 Q 968.403 481.915 969.116 481.401 L 969.116 481.401 L 969.116 481.401 Q 969.829 480.886 969.829 479.732 L 969.829 479.732 L 969.829 479.732 Q 969.829 478.766 969.395 478.142 L 969.395 478.142 L 969.395 478.142 Q 968.961 477.519 968.295 477.02 L 968.295 477.02 L 968.295 477.02 Q 967.628 476.521 966.853 476.104 L 966.853 476.104 L 966.853 476.104 Q 966.078 475.687 965.411 475.1 L 965.411 475.1 L 965.411 475.1 Q 964.745 474.513 964.311 473.71 L 964.311 473.71 L 964.311 473.71 Q 963.877 472.907 963.877 471.671 L 963.877 471.671 L 963.877 471.671 Q 963.877 469.694 964.947 468.69 L 964.947 468.69 L 964.947 468.69 Q 966.016 467.686 967.969 467.686 L 967.969 467.686 L 967.969 467.686 Q 969.24 467.686 970.17 467.918 L 970.17 467.918 L 970.17 467.918 Q 971.1 468.151 971.782 468.554 L 971.782 468.554 L 971.193 470.414 L 971.193 470.414 Q 970.604 470.104 969.829 469.902 L 969.829 469.902 L 969.829 469.902 Q 969.054 469.701 968.248 469.701 L 968.248 469.701 L 968.248 469.701 Q 967.132 469.701 966.621 470.166 L 966.621 470.166 L 966.621 470.166 Q 966.109 470.631 966.109 471.623 L 966.109 471.623 L 966.109 471.623 Q 966.109 472.398 966.543 472.94 L 966.543 472.94 L 966.543 472.94 Q 966.977 473.483 967.644 473.932 L 967.644 473.932 L 967.644 473.932 Q 968.31 474.382 969.085 474.847 L 969.085 474.847 L 969.085 474.847 Q 969.86 475.312 970.527 475.947 L 970.527 475.947 L 970.527 475.947 Q 971.193 476.583 971.627 477.466 L 971.627 477.466 L 971.627 477.466 Q 972.061 478.35 972.061 479.683 L 972.061 479.683 L 972.061 479.683 Q 972.061 480.551 971.782 481.326 L 971.782 481.326 L 971.782 481.326 Q 971.503 482.101 970.93 482.674 L 970.93 482.674 L 970.93 482.674 Q 970.356 483.248 969.504 483.589 L 969.504 483.589 L 969.504 483.589 Q 968.651 483.93 967.504 483.93 L 967.504 483.93 L 967.504 483.93 Q 966.14 483.93 965.148 483.666 L 965.148 483.666 L 965.148 483.666 Q 964.156 483.403 963.474 482.969 L 963.474 482.969 L 963.474 482.969 Z  M 985.345 480.861 L 986.151 482.504 L 986.151 482.504 Q 985.407 483.186 984.26 483.558 L 984.26 483.558 L 984.26 483.558 Q 983.113 483.93 981.842 483.93 L 981.842 483.93 L 981.842 483.93 Q 980.385 483.93 979.315 483.356 L 979.315 483.356 L 979.315 483.356 Q 978.246 482.783 977.549 481.713 L 977.549 481.713 L 977.549 481.713 Q 976.851 480.644 976.526 479.156 L 976.526 479.156 L 976.526 479.156 Q 976.2 477.668 976.2 475.808 L 976.2 475.808 L 976.2 475.808 Q 976.2 471.84 977.657 469.763 L 977.657 469.763 L 977.657 469.763 Q 979.114 467.686 981.78 467.686 L 981.78 467.686 L 981.78 467.686 Q 982.648 467.686 983.501 467.903 L 983.501 467.903 L 983.501 467.903 Q 984.353 468.12 985.035 468.771 L 985.035 468.771 L 985.035 468.771 Q 985.717 469.422 986.136 470.6 L 986.136 470.6 L 986.136 470.6 Q 986.554 471.778 986.554 473.669 L 986.554 473.669 L 986.554 473.669 Q 986.554 474.196 986.507 474.8 L 986.507 474.8 L 986.507 474.8 Q 986.461 475.405 986.399 476.056 L 986.399 476.056 L 978.525 476.056 L 978.525 476.056 Q 978.525 477.389 978.742 478.474 L 978.742 478.474 L 978.742 478.474 Q 978.959 479.559 979.424 480.319 L 979.424 480.319 L 979.424 480.319 Q 979.889 481.078 980.618 481.496 L 980.618 481.496 L 980.618 481.496 Q 981.346 481.915 982.431 481.915 L 982.431 481.915 L 982.431 481.915 Q 983.268 481.915 984.09 481.605 L 984.09 481.605 L 984.09 481.605 Q 984.911 481.295 985.345 480.861 L 985.345 480.861 L 985.345 480.861 Z  M 978.556 474.196 L 984.415 474.196 L 984.415 474.196 Q 984.477 471.871 983.764 470.786 L 983.764 470.786 L 983.764 470.786 Q 983.051 469.701 981.811 469.701 L 981.811 469.701 L 981.811 469.701 Q 980.385 469.701 979.548 470.786 L 979.548 470.786 L 979.548 470.786 Q 978.711 471.871 978.556 474.196 L 978.556 474.196 L 978.556 474.196 Z  M 992.274 470.755 L 991.53 468.988 L 991.53 468.988 Q 992.429 468.43 993.716 468.12 L 993.716 468.12 L 993.716 468.12 Q 995.002 467.81 996.428 467.81 L 996.428 467.81 L 996.428 467.81 Q 997.73 467.81 998.521 468.197 L 998.521 468.197 L 998.521 468.197 Q 999.311 468.585 999.761 469.251 L 999.761 469.251 L 999.761 469.251 Q 1000.21 469.918 1000.35 470.77 L 1000.35 470.77 L 1000.35 470.77 Q 1000.489 471.623 1000.489 472.553 L 1000.489 472.553 L 1000.489 472.553 Q 1000.489 474.413 1000.411 476.18 L 1000.411 476.18 L 1000.411 476.18 Q 1000.334 477.947 1000.334 479.528 L 1000.334 479.528 L 1000.334 479.528 Q 1000.334 480.706 1000.411 481.713 L 1000.411 481.713 L 1000.411 481.713 Q 1000.489 482.721 1000.706 483.62 L 1000.706 483.62 L 999.001 483.62 L 998.474 481.791 L 998.35 481.791 L 998.35 481.791 Q 997.885 482.597 996.986 483.186 L 996.986 483.186 L 996.986 483.186 Q 996.087 483.775 994.568 483.775 L 994.568 483.775 L 994.568 483.775 Q 992.894 483.775 991.825 482.612 L 991.825 482.612 L 991.825 482.612 Q 990.755 481.45 990.755 479.404 L 990.755 479.404 L 990.755 479.404 Q 990.755 478.071 991.205 477.172 L 991.205 477.172 L 991.205 477.172 Q 991.654 476.273 992.476 475.715 L 992.476 475.715 L 992.476 475.715 Q 993.297 475.157 994.429 474.924 L 994.429 474.924 L 994.429 474.924 Q 995.56 474.692 996.955 474.692 L 996.955 474.692 L 996.955 474.692 Q 997.265 474.692 997.575 474.692 L 997.575 474.692 L 997.575 474.692 Q 997.885 474.692 998.226 474.723 L 998.226 474.723 L 998.226 474.723 Q 998.319 473.762 998.319 473.018 L 998.319 473.018 L 998.319 473.018 Q 998.319 471.251 997.792 470.538 L 997.792 470.538 L 997.792 470.538 Q 997.265 469.825 995.87 469.825 L 995.87 469.825 L 995.87 469.825 Q 995.002 469.825 993.979 470.088 L 993.979 470.088 L 993.979 470.088 Q 992.956 470.352 992.274 470.755 L 992.274 470.755 L 992.274 470.755 Z  M 998.257 479.776 L 998.257 476.49 L 998.257 476.49 Q 997.947 476.459 997.637 476.444 L 997.637 476.444 L 997.637 476.444 Q 997.327 476.428 997.017 476.428 L 997.017 476.428 L 997.017 476.428 Q 996.273 476.428 995.56 476.552 L 995.56 476.552 L 995.56 476.552 Q 994.847 476.676 994.289 476.986 L 994.289 476.986 L 994.289 476.986 Q 993.731 477.296 993.406 477.823 L 993.406 477.823 L 993.406 477.823 Q 993.08 478.35 993.08 479.156 L 993.08 479.156 L 993.08 479.156 Q 993.08 480.396 993.685 481.078 L 993.685 481.078 L 993.685 481.078 Q 994.289 481.76 995.25 481.76 L 995.25 481.76 L 995.25 481.76 Q 996.552 481.76 997.265 481.14 L 997.265 481.14 L 997.265 481.14 Q 997.978 480.52 998.257 479.776 L 998.257 479.776 L 998.257 479.776 Z  M 1006.085 483.558 L 1006.085 468.058 L 1007.666 468.058 L 1008.069 469.701 L 1008.162 469.701 L 1008.162 469.701 Q 1008.596 468.802 1009.294 468.29 L 1009.294 468.29 L 1009.294 468.29 Q 1009.991 467.779 1010.983 467.779 L 1010.983 467.779 L 1010.983 467.779 Q 1011.696 467.779 1012.595 468.058 L 1012.595 468.058 L 1012.161 470.321 L 1012.161 470.321 Q 1011.355 470.042 1010.735 470.042 L 1010.735 470.042 L 1010.735 470.042 Q 1009.743 470.042 1009.123 470.615 L 1009.123 470.615 L 1009.123 470.615 Q 1008.503 471.189 1008.317 472.15 L 1008.317 472.15 L 1008.317 483.558 L 1006.085 483.558 L 1006.085 483.558 Z  M 1024.484 480.985 L 1025.135 482.783 L 1025.135 482.783 Q 1024.36 483.372 1023.368 483.651 L 1023.368 483.651 L 1023.368 483.651 Q 1022.376 483.93 1021.291 483.93 L 1021.291 483.93 L 1021.291 483.93 Q 1019.803 483.93 1018.78 483.356 L 1018.78 483.356 L 1018.78 483.356 Q 1017.757 482.783 1017.122 481.713 L 1017.122 481.713 L 1017.122 481.713 Q 1016.486 480.644 1016.192 479.14 L 1016.192 479.14 L 1016.192 479.14 Q 1015.897 477.637 1015.897 475.808 L 1015.897 475.808 L 1015.897 475.808 Q 1015.897 471.84 1017.308 469.763 L 1017.308 469.763 L 1017.308 469.763 Q 1018.718 467.686 1021.353 467.686 L 1021.353 467.686 L 1021.353 467.686 Q 1022.562 467.686 1023.43 467.903 L 1023.43 467.903 L 1023.43 467.903 Q 1024.298 468.12 1024.918 468.461 L 1024.918 468.461 L 1024.298 470.414 L 1024.298 470.414 Q 1023.058 469.701 1021.601 469.701 L 1021.601 469.701 L 1021.601 469.701 Q 1019.927 469.701 1019.075 471.173 L 1019.075 471.173 L 1019.075 471.173 Q 1018.222 472.646 1018.222 475.808 L 1018.222 475.808 L 1018.222 475.808 Q 1018.222 477.079 1018.408 478.195 L 1018.408 478.195 L 1018.408 478.195 Q 1018.594 479.311 1019.028 480.132 L 1019.028 480.132 L 1019.028 480.132 Q 1019.462 480.954 1020.144 481.434 L 1020.144 481.434 L 1020.144 481.434 Q 1020.826 481.915 1021.849 481.915 L 1021.849 481.915 L 1021.849 481.915 Q 1022.655 481.915 1023.353 481.636 L 1023.353 481.636 L 1023.353 481.636 Q 1024.05 481.357 1024.484 480.985 L 1024.484 480.985 L 1024.484 480.985 Z  M 1039.783 483.558 L 1037.551 483.558 L 1037.551 474.134 L 1037.551 474.134 Q 1037.551 471.964 1037.04 470.832 L 1037.04 470.832 L 1037.04 470.832 Q 1036.528 469.701 1035.009 469.701 L 1035.009 469.701 L 1035.009 469.701 Q 1033.924 469.701 1033.041 470.476 L 1033.041 470.476 L 1033.041 470.476 Q 1032.157 471.251 1031.847 472.429 L 1031.847 472.429 L 1031.847 483.558 L 1029.615 483.558 L 1029.615 461.858 L 1031.847 461.858 L 1031.847 469.515 L 1031.94 469.515 L 1031.94 469.515 Q 1032.56 468.709 1033.475 468.197 L 1033.475 468.197 L 1033.475 468.197 Q 1034.389 467.686 1035.753 467.686 L 1035.753 467.686 L 1035.753 467.686 Q 1036.776 467.686 1037.536 467.965 L 1037.536 467.965 L 1037.536 467.965 Q 1038.295 468.244 1038.791 468.926 L 1038.791 468.926 L 1038.791 468.926 Q 1039.287 469.608 1039.535 470.739 L 1039.535 470.739 L 1039.535 470.739 Q 1039.783 471.871 1039.783 473.545 L 1039.783 473.545 L 1039.783 483.558 L 1039.783 483.558 Z  M 868.889 481.419 L 868.889 483.558 L 858.442 483.558 L 858.442 461.858 L 860.767 461.858 L 860.767 481.419 L 868.889 481.419 L 868.889 481.419 Z  M 880.251 480.861 L 881.057 482.504 L 881.057 482.504 Q 880.313 483.186 879.166 483.558 L 879.166 483.558 L 879.166 483.558 Q 878.019 483.93 876.748 483.93 L 876.748 483.93 L 876.748 483.93 Q 875.291 483.93 874.222 483.356 L 874.222 483.356 L 874.222 483.356 Q 873.152 482.783 872.455 481.713 L 872.455 481.713 L 872.455 481.713 Q 871.757 480.644 871.432 479.156 L 871.432 479.156 L 871.432 479.156 Q 871.106 477.668 871.106 475.808 L 871.106 475.808 L 871.106 475.808 Q 871.106 471.84 872.563 469.763 L 872.563 469.763 L 872.563 469.763 Q 874.02 467.686 876.686 467.686 L 876.686 467.686 L 876.686 467.686 Q 877.554 467.686 878.407 467.903 L 878.407 467.903 L 878.407 467.903 Q 879.259 468.12 879.941 468.771 L 879.941 468.771 L 879.941 468.771 Q 880.623 469.422 881.042 470.6 L 881.042 470.6 L 881.042 470.6 Q 881.46 471.778 881.46 473.669 L 881.46 473.669 L 881.46 473.669 Q 881.46 474.196 881.414 474.8 L 881.414 474.8 L 881.414 474.8 Q 881.367 475.405 881.305 476.056 L 881.305 476.056 L 873.431 476.056 L 873.431 476.056 Q 873.431 477.389 873.648 478.474 L 873.648 478.474 L 873.648 478.474 Q 873.865 479.559 874.33 480.319 L 874.33 480.319 L 874.33 480.319 Q 874.795 481.078 875.524 481.496 L 875.524 481.496 L 875.524 481.496 Q 876.252 481.915 877.337 481.915 L 877.337 481.915 L 877.337 481.915 Q 878.174 481.915 878.996 481.605 L 878.996 481.605 L 878.996 481.605 Q 879.817 481.295 880.251 480.861 L 880.251 480.861 L 880.251 480.861 Z  M 873.462 474.196 L 879.321 474.196 L 879.321 474.196 Q 879.383 471.871 878.67 470.786 L 878.67 470.786 L 878.67 470.786 Q 877.957 469.701 876.717 469.701 L 876.717 469.701 L 876.717 469.701 Q 875.291 469.701 874.454 470.786 L 874.454 470.786 L 874.454 470.786 Q 873.617 471.871 873.462 474.196 L 873.462 474.196 L 873.462 474.196 Z  M 896.108 468.709 L 896.108 484.271 L 896.108 484.271 Q 896.108 487.278 894.775 488.704 L 894.775 488.704 L 894.775 488.704 Q 893.442 490.13 890.9 490.13 L 890.9 490.13 L 890.9 490.13 Q 889.35 490.13 888.358 489.867 L 888.358 489.867 L 888.358 489.867 Q 887.366 489.603 886.746 489.262 L 886.746 489.262 L 887.397 487.34 L 887.397 487.34 Q 888.017 487.619 888.761 487.867 L 888.761 487.867 L 888.761 487.867 Q 889.505 488.115 890.59 488.115 L 890.59 488.115 L 890.59 488.115 Q 892.481 488.115 893.179 487.061 L 893.179 487.061 L 893.179 487.061 Q 893.876 486.007 893.876 483.527 L 893.876 483.527 L 893.876 482.38 L 893.783 482.38 L 893.783 482.38 Q 893.287 483.093 892.512 483.496 L 892.512 483.496 L 892.512 483.496 Q 891.737 483.899 890.528 483.899 L 890.528 483.899 L 890.528 483.899 Q 888.017 483.899 886.839 481.961 L 886.839 481.961 L 886.839 481.961 Q 885.661 480.024 885.661 475.87 L 885.661 475.87 L 885.661 475.87 Q 885.661 471.871 887.196 469.825 L 887.196 469.825 L 887.196 469.825 Q 888.73 467.779 891.737 467.779 L 891.737 467.779 L 891.737 467.779 Q 893.194 467.779 894.248 468.058 L 894.248 468.058 L 894.248 468.058 Q 895.302 468.337 896.108 468.709 L 896.108 468.709 L 896.108 468.709 Z  M 893.876 479.404 L 893.876 470.29 L 893.876 470.29 Q 892.946 469.794 891.489 469.794 L 891.489 469.794 L 891.489 469.794 Q 889.908 469.794 888.947 471.235 L 888.947 471.235 L 888.947 471.235 Q 887.986 472.677 887.986 475.839 L 887.986 475.839 L 887.986 475.839 Q 887.986 477.141 888.141 478.242 L 888.141 478.242 L 888.141 478.242 Q 888.296 479.342 888.668 480.163 L 888.668 480.163 L 888.668 480.163 Q 889.04 480.985 889.614 481.434 L 889.614 481.434 L 889.614 481.434 Q 890.187 481.884 891.024 481.884 L 891.024 481.884 L 891.024 481.884 Q 892.202 481.884 892.884 481.264 L 892.884 481.264 L 892.884 481.264 Q 893.566 480.644 893.876 479.404 L 893.876 479.404 L 893.876 479.404 Z  M 902.324 470.755 L 901.58 468.988 L 901.58 468.988 Q 902.479 468.43 903.766 468.12 L 903.766 468.12 L 903.766 468.12 Q 905.052 467.81 906.478 467.81 L 906.478 467.81 L 906.478 467.81 Q 907.78 467.81 908.571 468.197 L 908.571 468.197 L 908.571 468.197 Q 909.361 468.585 909.811 469.251 L 909.811 469.251 L 909.811 469.251 Q 910.26 469.918 910.4 470.77 L 910.4 470.77 L 910.4 470.77 Q 910.539 471.623 910.539 472.553 L 910.539 472.553 L 910.539 472.553 Q 910.539 474.413 910.462 476.18 L 910.462 476.18 L 910.462 476.18 Q 910.384 477.947 910.384 479.528 L 910.384 479.528 L 910.384 479.528 Q 910.384 480.706 910.462 481.713 L 910.462 481.713 L 910.462 481.713 Q 910.539 482.721 910.756 483.62 L 910.756 483.62 L 909.051 483.62 L 908.524 481.791 L 908.4 481.791 L 908.4 481.791 Q 907.935 482.597 907.036 483.186 L 907.036 483.186 L 907.036 483.186 Q 906.137 483.775 904.618 483.775 L 904.618 483.775 L 904.618 483.775 Q 902.944 483.775 901.875 482.612 L 901.875 482.612 L 901.875 482.612 Q 900.805 481.45 900.805 479.404 L 900.805 479.404 L 900.805 479.404 Q 900.805 478.071 901.255 477.172 L 901.255 477.172 L 901.255 477.172 Q 901.704 476.273 902.526 475.715 L 902.526 475.715 L 902.526 475.715 Q 903.347 475.157 904.479 474.924 L 904.479 474.924 L 904.479 474.924 Q 905.61 474.692 907.005 474.692 L 907.005 474.692 L 907.005 474.692 Q 907.315 474.692 907.625 474.692 L 907.625 474.692 L 907.625 474.692 Q 907.935 474.692 908.276 474.723 L 908.276 474.723 L 908.276 474.723 Q 908.369 473.762 908.369 473.018 L 908.369 473.018 L 908.369 473.018 Q 908.369 471.251 907.842 470.538 L 907.842 470.538 L 907.842 470.538 Q 907.315 469.825 905.92 469.825 L 905.92 469.825 L 905.92 469.825 Q 905.052 469.825 904.029 470.088 L 904.029 470.088 L 904.029 470.088 Q 903.006 470.352 902.324 470.755 L 902.324 470.755 L 902.324 470.755 Z  M 908.307 479.776 L 908.307 476.49 L 908.307 476.49 Q 907.997 476.459 907.687 476.444 L 907.687 476.444 L 907.687 476.444 Q 907.377 476.428 907.067 476.428 L 907.067 476.428 L 907.067 476.428 Q 906.323 476.428 905.61 476.552 L 905.61 476.552 L 905.61 476.552 Q 904.897 476.676 904.339 476.986 L 904.339 476.986 L 904.339 476.986 Q 903.781 477.296 903.456 477.823 L 903.456 477.823 L 903.456 477.823 Q 903.13 478.35 903.13 479.156 L 903.13 479.156 L 903.13 479.156 Q 903.13 480.396 903.735 481.078 L 903.735 481.078 L 903.735 481.078 Q 904.339 481.76 905.3 481.76 L 905.3 481.76 L 905.3 481.76 Q 906.602 481.76 907.315 481.14 L 907.315 481.14 L 907.315 481.14 Q 908.028 480.52 908.307 479.776 L 908.307 479.776 L 908.307 479.776 Z  M 918.522 461.858 L 918.522 479.869 L 918.522 479.869 Q 918.522 480.954 918.817 481.419 L 918.817 481.419 L 918.817 481.419 Q 919.111 481.884 919.638 481.884 L 919.638 481.884 L 919.638 481.884 Q 920.289 481.884 921.157 481.543 L 921.157 481.543 L 921.374 483.341 L 921.374 483.341 Q 920.971 483.589 920.243 483.744 L 920.243 483.744 L 920.243 483.744 Q 919.514 483.899 918.925 483.899 L 918.925 483.899 L 918.925 483.899 Q 917.747 483.899 917.019 483.17 L 917.019 483.17 L 917.019 483.17 Q 916.29 482.442 916.29 480.613 L 916.29 480.613 L 916.29 461.858 L 918.522 461.858 L 918.522 461.858 Z  M 834.09 483.558 L 832.323 477.482 L 826.185 477.482 L 824.449 483.558 L 822.155 483.558 L 828.696 461.517 L 829.967 461.517 L 836.508 483.558 L 834.09 483.558 L 834.09 483.558 Z  M 828.634 468.792 L 826.805 475.467 L 831.765 475.467 L 829.874 468.729 L 829.285 465.454 L 829.223 465.454 L 828.634 468.792 L 828.634 468.792 Z  M 841.112 483.558 L 841.112 461.858 L 843.437 461.858 L 843.437 483.558 L 841.112 483.558 L 841.112 483.558 Z " fill="rgb(0,0,0)"/></g></svg>