<svg xmlns="http://www.w3.org/2000/svg" width="520" height="288" fill="none">
  <g opacity=".4">
    <path fill="#DFE2E4" d="M91.837 277.909V158.863h35.06v119.046h-35.06z"/>
    <path fill="#DFE2E4" d="M110.098 158.863H91.87v51.596l18.228-51.596z"/>
    <path fill="#F3F3F3" d="M132.22 56.366c0 13.877-11.249 25.126-25.126 25.126s-25.126-11.25-25.126-25.126c0-13.877 11.249-25.126 25.126-25.126v25.126h25.126z"/>
    <path fill="#F0F0F0" d="M483.41 176.869l36.591 56.616-64.99 52.246-38.046-52.246 66.445-56.616z"/>
    <path stroke="#BEC8D2" stroke-linecap="round" stroke-linejoin="round" stroke-width="1.6" d="M113.601 49.936V24.81c2.564 0 9.23 1.538 15.384 7.692 6.153 6.153 8.033 14.186 8.204 17.434h-23.588zM469.949 237.98l2.058 7.41m-5.967-2.676l-2.058-7.822m22.247-169.358c1.168.958 2.23 1.917 5.415 4.473 4.484 3.599 5.734 5.113 3.822 13.42-1.528 6.647-8.918 16.829-12.422 21.09l-13.059-12.142c3.291-4.048 10.511-13.804 13.059-20.45 2.548-6.647-6.158-11.61-10.192-13.102l8.918 10.864m-9.231 191.557l-7.993-13.275c3.235.379 9.782 2.465 10.086 7.775.305 5.31-1.269 9.798-2.093 11.378l11.228 14.603c1.459-1.012 4.148-4.097 3.235-8.345-.914-4.247-6.217-11.757-8.754-14.981M14.203 130.442L.8 125.628c1.914-1.605 6.7-4.044 10.53-.963 3.829 3.081 5.424 7.703 5.743 9.629l15.317 2.888c.425-2.674-2.578-9.332-8.582-12.517-5.424-2.878-8.616-2.675-9.254-2.889M416.542 3.678c.741 2.772 2.984 9.402 6.032 13.75 3.048 4.35 7.831 9.274 9.841 11.192l-20.952 7.994c-3.175-4.583-10.222-15.22-13.016-21.104-2.794-5.884-3.492-9.487-3.492-10.553L412.733.8"/>
    <path fill="#C4C4C4" fill-opacity=".2" d="M402.702 85.427l37.854 56.302-75.033 52.248-33.577-56.058 70.756-52.492z"/>
    <path fill="#DFE2E4" d="M471.755 129.231l-40.156-1.013-13.177 71.573 55.318 2.481-1.985-73.041z"/>
    <path fill="#292727" d="M444.222 128.799l-13.344-.466-37.406 69.88 46.753 3.101 12.481-44.553-7.025-4.785 5.344-5.823-6.803-17.354zm-104.374 27.59l8.769 11.144 43.158-55.678-51.927 44.534z"/>
    <path fill="#fff" stroke="#000" stroke-width="1.949" d="M438.673 156.588l-46.423-44.07-69.27 76.524 54.042 41.451 61.651-73.905z"/>
    <path stroke="#000" stroke-width="1.949" d="M438.52 156.796l-11.461-.212-35.154-31.11.429-12.417"/>
    <path stroke="#000" stroke-width="1.947" d="M378.262 229.81l-1.688-10.66-42.362-32.584-10.887 1.724m84.657-48.284l-50.804 63.848"/>
    <path fill="#292727" d="M106.342 187.874L91.837 177.87v100.039h4.501l10.004-90.035z"/>
    <path fill="#F3F3F3" stroke="#000" stroke-width="1.701" d="M62.826 274.15l12.547-89.277 25.882 3.637-12.547 89.277-25.882-3.637z"/>
    <path fill="#fff" stroke="#000" stroke-width="1.701" d="M79.212 191.482l16.345 2.297-8.182 58.222-16.346-2.297z"/>
  </g>
  <path fill="#fff" stroke="#4299F3" stroke-width="3" d="M342.298 56.102h-149.45c-3.036 0-5.57 2.26-5.692 5.292-.564 14.02.374 43.734.374 76.469 0 37.75-20.273 56.843-28.538 63.54h214.736c-8.784-9.027-25.263-27.2-25.263-63.54 0-33.097-.517-54.608-.138-75.596.061-3.378-2.65-6.165-6.029-6.165z"/>
  <path fill="#D9DCE0" d="M203.881 73.829h129.87v4.002h-129.87zm0 17.007h129.87v4.002h-129.87zm0 34.013h129.87v4.002h-129.87zm0-17.007h129.87v4.002h-129.87zm0 34.014h129.87v4.002h-129.87z"/>
  <rect width="132.052" height="41.016" x="104.842" y="132.852" fill="#4299F3" filter="url(#a)" rx="2"/>
  <rect width="72.007" height="7.003" x="147.558" y="142.856" fill="#A5D1FF" rx="3.5"/>
  <rect width="57.863" height="7.003" x="147.558" y="155.573" fill="#A5D1FF" rx="3.5"/>
  <rect width="57.863" height="75.865" x="315.925" y="36.815" fill="#4299F3" filter="url(#b)" rx="2"/>
  <rect width="38.015" height="7.003" x="324.928" y="45.818" fill="#A5D1FF" rx="3.5"/>
  <rect width="30.012" height="7.003" x="325.297" y="58.823" fill="#A5D1FF" rx="3.5"/>
  <path fill="#D5E9FF" d="M147.419 250.265l4.501-11.573h237.238l2.572 11.573H147.419zm-.561 20.102l3.001-7.964 236.89-.463 2.572 8.427H146.858z"/>
  <path stroke="#4299F3" stroke-width="3" d="M151.535 239.066l-6.393 17.137c-1.254 3.361 1.231 6.941 4.819 6.941h238.712c3.379 0 5.84-3.203 4.97-6.468l-4.693-17.61"/>
  <path stroke="#4299F3" stroke-width="3" d="M149.859 262.903l-5.962 16.194c-1.237 3.358 1.248 6.921 4.826 6.921h238.732c3.384 0 5.845-3.211 4.968-6.478l-4.47-16.637"/>
  <path fill="#fff" stroke="#4299F3" stroke-width="3" d="M143.584 238.692c-19.478 0-22.645-22.062-21.746-35.011.09-1.303 1.194-2.278 2.5-2.278H408.35c1.307 0 2.41.975 2.505 2.278.943 12.948-1.8 35.011-19.835 35.011H143.584z"/>
  <rect width="26.01" height="26.01" x="113.845" y="139.855" fill="#E3F2FA" fill-opacity=".5" rx="3"/>
  <path stroke="#D4E9FF" stroke-width="3" d="M126.85 152.36l9.003-59.524h64.026" style="mix-blend-mode:multiply"/>
  <circle cx="126.85" cy="152.86" r="6.002" fill="#fff"/>
  <rect width="70.027" height="14.005" x="199.879" y="85.834" fill="#D4E9FF" rx="2" style="mix-blend-mode:multiply"/>
  <defs>
    <filter id="a" width="137.054" height="46.159" x="104.842" y="132.852" color-interpolation-filters="sRGB" filterUnits="userSpaceOnUse">
      <feFlood flood-opacity="0" result="BackgroundImageFix"/>
      <feColorMatrix in="SourceAlpha" values="0 0 0 0 0 0 0 0 0 0 0 0 0 0 0 0 0 0 127 0"/>
      <feOffset dx="5" dy="5.141"/>
      <feColorMatrix values="0 0 0 0 1 0 0 0 0 1 0 0 0 0 1 0 0 0 1 0"/>
      <feBlend in2="BackgroundImageFix" result="effect1_dropShadow"/>
      <feBlend in="SourceGraphic" in2="effect1_dropShadow" result="shape"/>
    </filter>
    <filter id="b" width="62.865" height="81.867" x="315.925" y="36.815" color-interpolation-filters="sRGB" filterUnits="userSpaceOnUse">
      <feFlood flood-opacity="0" result="BackgroundImageFix"/>
      <feColorMatrix in="SourceAlpha" values="0 0 0 0 0 0 0 0 0 0 0 0 0 0 0 0 0 0 127 0"/>
      <feOffset dx="5" dy="6"/>
      <feColorMatrix values="0 0 0 0 1 0 0 0 0 1 0 0 0 0 1 0 0 0 1 0"/>
      <feBlend in2="BackgroundImageFix" result="effect1_dropShadow"/>
      <feBlend in="SourceGraphic" in2="effect1_dropShadow" result="shape"/>
    </filter>
  </defs>
</svg>
